G04*
G04 #@! TF.GenerationSoftware,Altium Limited,Altium Designer,24.5.2 (23)*
G04*
G04 Layer_Color=8421504*
%FSLAX25Y25*%
%MOIN*%
G70*
G04*
G04 #@! TF.SameCoordinates,8FDF06D3-AC16-476C-BC71-0AF945C2432B*
G04*
G04*
G04 #@! TF.FilePolarity,Positive*
G04*
G01*
G75*
%ADD17C,0.03937*%
%ADD18R,0.08268X0.08268*%
%ADD19R,0.01181X0.04724*%
%ADD20R,0.04724X0.01181*%
%ADD21R,0.08661X0.16929*%
%ADD22R,0.16929X0.08661*%
%ADD23R,0.05906X0.08661*%
%ADD24R,0.04016X0.03701*%
%ADD25R,0.21260X0.11417*%
%ADD26R,0.08976X0.04724*%
%ADD27R,0.25197X0.22835*%
%ADD28R,0.03701X0.04016*%
%ADD29R,0.42913X0.35827*%
%ADD30R,0.04528X0.15551*%
%ADD31R,0.03937X0.03543*%
%ADD32R,0.13780X0.07284*%
%ADD33R,0.03543X0.03937*%
%ADD34R,0.07284X0.13780*%
%ADD35R,0.03150X0.03937*%
%ADD36R,0.03937X0.05512*%
%ADD37R,0.08268X0.05906*%
D17*
X513386Y74410D02*
D03*
X41339Y47244D02*
D03*
X26772Y269685D02*
D03*
X102819Y129134D02*
D03*
X167323Y139370D02*
D03*
X43701Y276378D02*
D03*
X112205Y163386D02*
D03*
X128779Y194882D02*
D03*
X156693Y133465D02*
D03*
X26980Y227347D02*
D03*
X79134Y146457D02*
D03*
X18110Y185433D02*
D03*
X50394Y159055D02*
D03*
D18*
X159370Y103612D02*
D03*
D19*
X155532Y111682D02*
D03*
X158091D02*
D03*
X160650D02*
D03*
X163209D02*
D03*
X160650Y95541D02*
D03*
X158091D02*
D03*
X155532D02*
D03*
X163209D02*
D03*
D20*
X167441Y107450D02*
D03*
Y104891D02*
D03*
Y102332D02*
D03*
Y99773D02*
D03*
X151299D02*
D03*
Y102332D02*
D03*
Y104891D02*
D03*
Y107450D02*
D03*
D21*
X63779Y285827D02*
D03*
X91339D02*
D03*
X142913D02*
D03*
X170473D02*
D03*
D22*
X51181Y266929D02*
D03*
Y239370D02*
D03*
X119887Y100394D02*
D03*
Y127953D02*
D03*
D23*
X175197Y47706D02*
D03*
X163386D02*
D03*
X175197Y58336D02*
D03*
X163386D02*
D03*
X90551Y98425D02*
D03*
X78740D02*
D03*
X90551Y110236D02*
D03*
X78740D02*
D03*
D24*
X182677Y24764D02*
D03*
Y18543D02*
D03*
X175591Y18543D02*
D03*
Y24764D02*
D03*
X166142Y132244D02*
D03*
Y126024D02*
D03*
X72047Y136575D02*
D03*
Y130354D02*
D03*
X7087Y209803D02*
D03*
Y203583D02*
D03*
X14567Y225551D02*
D03*
Y219331D02*
D03*
X79134Y130354D02*
D03*
Y136575D02*
D03*
X173622Y132244D02*
D03*
Y126024D02*
D03*
X137402Y104370D02*
D03*
Y110591D02*
D03*
X168504Y24764D02*
D03*
Y18543D02*
D03*
D25*
X161283Y210236D02*
D03*
Y249213D02*
D03*
X119887Y88060D02*
D03*
Y49084D02*
D03*
D26*
X26964Y201029D02*
D03*
Y219139D02*
D03*
X177677Y147244D02*
D03*
Y165354D02*
D03*
D27*
X51964Y210084D02*
D03*
X152677Y156299D02*
D03*
D28*
X140984Y135433D02*
D03*
X147205D02*
D03*
X135000Y188583D02*
D03*
X128779D02*
D03*
X128779Y182677D02*
D03*
X135000D02*
D03*
X135000Y176772D02*
D03*
X128779D02*
D03*
X103898Y150000D02*
D03*
X97677D02*
D03*
X103898Y142913D02*
D03*
X97677D02*
D03*
X103898Y135827D02*
D03*
X97677D02*
D03*
X178386Y112598D02*
D03*
X184606D02*
D03*
X154685Y80709D02*
D03*
X148465D02*
D03*
D29*
X104640Y230088D02*
D03*
D30*
X91175Y188750D02*
D03*
X97908D02*
D03*
X104640D02*
D03*
X111372D02*
D03*
X118105D02*
D03*
D31*
X100787Y270669D02*
D03*
Y277362D02*
D03*
X137406Y122706D02*
D03*
Y116013D02*
D03*
D32*
X177362Y187402D02*
D03*
X156496D02*
D03*
D33*
X104528Y175197D02*
D03*
X111221D02*
D03*
X185039Y102362D02*
D03*
X178347D02*
D03*
X175211Y74803D02*
D03*
X181904D02*
D03*
X156496D02*
D03*
X163189D02*
D03*
X156496Y68504D02*
D03*
X163189D02*
D03*
D34*
X119685Y262795D02*
D03*
Y283661D02*
D03*
X75894Y75197D02*
D03*
Y54331D02*
D03*
D35*
X14567Y211221D02*
D03*
Y202953D02*
D03*
X128347Y138779D02*
D03*
Y147047D02*
D03*
D36*
X116929Y146850D02*
D03*
X120669Y138189D02*
D03*
X113189D02*
D03*
D37*
X121457Y18228D02*
D03*
Y28228D02*
D03*
X157283D02*
D03*
Y18228D02*
D03*
M02*
