G04*
G04 #@! TF.GenerationSoftware,Altium Limited,Altium Designer,24.5.2 (23)*
G04*
G04 Layer_Color=32896*
%FSLAX25Y25*%
%MOIN*%
G70*
G04*
G04 #@! TF.SameCoordinates,8FDF06D3-AC16-476C-BC71-0AF945C2432B*
G04*
G04*
G04 #@! TF.FilePolarity,Positive*
G04*
G01*
G75*
G36*
X367520Y277602D02*
X341609D01*
X320276D01*
Y305160D01*
X341609D01*
X367520D01*
Y277602D01*
D02*
G37*
G36*
X367520Y40200D02*
X346187D01*
D01*
X320276D01*
Y67759D01*
X367520D01*
Y40200D01*
D02*
G37*
G36*
Y229176D02*
Y201617D01*
X320276D01*
Y229176D01*
X346187D01*
D01*
X367520D01*
D02*
G37*
G36*
X367520Y143743D02*
Y116184D01*
X341609D01*
X320276D01*
Y143743D01*
X341609D01*
X367520D01*
D02*
G37*
%LPC*%
G36*
X362823Y300202D02*
Y293604D01*
X356298D01*
Y300202D01*
X345254D01*
X351778D01*
Y293604D01*
X345254D01*
Y289194D01*
X351778D01*
Y282560D01*
X362823D01*
Y300202D01*
D02*
G37*
G36*
X336564Y296138D02*
X331716D01*
Y286624D01*
X336564D01*
Y296138D01*
D02*
G37*
%LPD*%
G36*
X362823Y282560D02*
X356298D01*
Y289194D01*
X362823D01*
Y282560D01*
D02*
G37*
%LPC*%
G36*
X342542Y62800D02*
Y56166D01*
X336017D01*
Y62800D01*
X324973D01*
X331497D01*
Y56166D01*
X324973D01*
Y45158D01*
D01*
Y51756D01*
X331497D01*
Y45158D01*
X342542D01*
X336017D01*
Y51756D01*
X342542D01*
Y62800D01*
D02*
G37*
G36*
X356079Y58736D02*
X351231D01*
Y49223D01*
X356079D01*
Y58736D01*
D02*
G37*
G36*
X342542Y224218D02*
Y217584D01*
X336017D01*
Y224218D01*
X342542D01*
X331497D01*
Y217584D01*
X324973D01*
Y206576D01*
D01*
Y213173D01*
X331497D01*
Y206576D01*
X324973D01*
X336017D01*
Y213173D01*
X342542D01*
Y224218D01*
D02*
G37*
G36*
X356079Y220153D02*
X351231D01*
Y210640D01*
X356079D01*
Y220153D01*
D02*
G37*
G36*
X362823Y138785D02*
Y132187D01*
X356298D01*
Y138785D01*
X362823D01*
X351778D01*
Y132187D01*
X345254D01*
Y127777D01*
X351778D01*
Y121143D01*
X345254D01*
X356298D01*
Y127777D01*
X362823D01*
Y138785D01*
D02*
G37*
G36*
X336564Y134720D02*
X331716D01*
Y125207D01*
X336564D01*
Y134720D01*
D02*
G37*
%LPD*%
M02*
