M48
;Layer_Color=9474304
;FILE_FORMAT=2:5
INCH,TZ
;TYPE=PLATED
T01F00S00C0.01181
T02F00S00C0.01575
T03F00S00C0.01968
T04F00S00C0.03189
T06F00S00C0.05118
T07F00S00C0.06299
T08F00S00C0.11811
;TYPE=NON_PLATED
T09F00S00C0.12598
%
T01
X472441Y51181
Y55118
Y59055
Y62992
Y66929
Y70866
X476378
X480315
X484252
X488189
Y74803
Y78740
X484252
Y74803
X480315
Y78740
X476378
Y74803
X472441
Y78740
Y82677
X476378
X480315
X484252
X488189
Y86614
Y90551
X484252
Y86614
X480315
Y90551
X476378
Y86614
X472441
Y90551
Y94488
Y98425
Y102362
Y106299
X476378
X480315
X484252
X488189
Y110236
Y114173
X484252
Y110236
X480315
Y114173
X476378
Y110236
X472441
Y114173
Y118110
Y122047
Y125984
X476378
Y122047
Y118110
X480315
X484252
X488189
Y102362
Y98425
X484252
Y102362
X480315
Y98425
X476378
Y102362
Y94488
X480315
X484252
X488189
Y66929
Y62992
X484252
Y66929
X480315
Y62992
X476378
Y66929
Y59055
Y55118
Y51181
Y129921
Y133858
X472441
Y129921
X224410
Y133858
X220472
Y129921
Y125984
X224410
X224410Y122047
Y118110
X228346
Y114173
X224410
Y110236
X228346
X232283Y110236
Y114173
Y118110
X220472Y118110
Y122047
X216535
Y118110
X212598
Y122047
Y125984
X216535
Y129921
Y133858
X212598
Y129921
Y114173
Y110236
Y106299
X216535
X220472
X224410
X228346
X232283
Y102362
X232283Y98425
Y94488
Y90551
Y86614
Y82677
X228346
Y86614
X224410
Y90551
X228346
Y94488
X224410
X224410Y98425
Y102362
X228346
Y98425
X220472Y98425
Y102362
X216535
Y98425
X212598
Y102362
Y94488
Y90551
Y86614
Y82677
X216535
X220472
X224410
Y78740
Y74803
X228346
Y78740
X232283
Y74803
Y70866
X228346
X224410
X220472
Y74803
Y78740
X216535
Y74803
X212598
Y78740
Y70866
X216535
Y66929
Y62992
X220472
Y66929
X224410
Y62992
X228346
Y66929
X232283
Y62992
X224410Y59055
X220472
Y55118
Y51181
X216535
Y55118
X212598
Y51181
X208661Y51181
Y55118
X212598Y59055
Y62992
Y66929
X216535Y59055
Y47244
Y43307
X212598
X208661Y43307
X204724
X200787
X196850
X192913
Y47244
Y51181
Y55118
X196850Y47244
X200787
X204724
X208661
X212598Y47244
X220472
Y43307
X224410
X228346
X220472Y86614
Y90551
X216535
Y86614
Y94488
X220472
X220472Y110236
Y114173
X216535Y114173
Y110236
X161535Y105777
Y101446
X157205
Y105777
X212598Y137795
X216535
X220472
X224410
X228346
Y141732
X232283
Y145669
X228346
Y149606
X232283
Y153543
X228346
X224410
Y149606
Y145669
Y141732
X220472
X216535
X212598
Y145669
Y149606
X216535
Y145669
X220472
Y149606
Y153543
X216535
X212598
Y157480
X216535
X220472
X224410
X228346
X232283
Y161417
X228346
Y165354
X224410
X220472
Y169291
X224410
X228346
Y173228
X224410
Y177165
X228346Y177165
X232283
Y173228
X232283Y169291
Y165354
X224410Y161417
X220472
X216535
Y165354
X212598
Y161417
Y169291
X216535
Y173228
X212598
Y177165
X216535
Y181102
X220472
Y185039
Y188976
X224410
X224410Y185039
X228346
Y188976
Y192913
Y196850
X224410
X220472
Y200787
X224410
X228346
X232283
Y196850
X232283Y192913
Y188976
Y185039
Y181102
X228346
X224410
X220472Y177165
Y173228
X212598Y181102
Y185039
Y188976
X216535
Y185039
Y192913
X212598
Y196850
X216535
Y200787
Y204724
X212598
Y200787
X208661Y204724
X204724
X200787
Y208661
X204724
X208661
Y212598
Y216535
X212598
Y220472
X208661Y220472
X204724
Y224410
X208661
X212598Y224409
X216535
Y220472
Y216535
Y212598
Y208661
X212598
Y212598
X220472
X220472Y208661
Y204724
X224410
X228346
X224410Y208661
X224410Y212598
Y216535
Y220472
X220472
Y216535
Y224409
X224410
X228346
X232283
X200787Y224410
X196850
X192913
Y220472
X196850
X200787
X192913Y216535
Y212598
Y208661
X196850
Y204724
X192913
X220472Y192913
X224410
X472441Y192913
Y196850
Y200787
Y204724
Y208661
Y212598
Y216535
Y220472
Y224410
Y228346
Y232283
Y236221
Y240158
Y244094
Y248031
Y251969
Y255906
Y259842
Y263779
Y267717
Y271654
Y275590
Y279528
Y283465
Y287402
Y291339
X476378
Y287402
Y283465
Y279528
X480315
X484252
X488189
Y275590
X484252
X480315
X476378
Y271654
Y267717
X480315
Y271654
X484252
Y267717
X488189
Y271654
Y263779
X484252
X480315
X476378
Y259842
X480315
X484252
X488189
Y255906
Y251969
X484252
Y255906
X480315
Y251969
X476378
Y255906
Y248031
X480315
X484252
X488189
Y244094
X484252
X480315
X476378
Y240158
X480315
X484252
X488189
Y236221
X484252
X480315
X476378
Y232283
Y228346
X480315
Y232283
X484252
Y228346
X488189
Y232283
Y224410
X484252
X480315
X476378
Y220472
Y216535
Y212598
Y208661
Y204724
X480315
X484252
X488189
Y200787
Y196850
X484252
Y200787
X480315
Y196850
X476378
Y200787
Y192913
X480315
X484252
X488189
X476378Y188976
X472441
Y185039
X476378
Y181102
X472441
Y177165
Y173228
X476378
Y177165
X480315Y173228
X484252
X488189
Y169291
X484252
X480315
X476378
X472441
Y165354
X476378
X480315
X484252
X488189
Y161417
Y157480
X484252
Y161417
X480315
Y157480
X476378
Y161417
X472441
Y157480
Y153543
X476378
X480315
X484252
X488189
Y149606
X484252
X480315
X476378
X472441
Y145669
Y141732
X476378
Y145669
X480315
Y141732
X484252
Y145669
X488189
Y141732
Y137795
X484252
X480315
X476378
X472441
T02
X151969Y64567
Y71653
X150398Y87075
X146461
X146461Y91012
Y94949
X150398
Y91012
X150394Y112272
X146457
X146461Y116210
X150398
Y120147
X146461
X100792Y115816
X97249
Y111879
X100792
Y107942
X97249
Y104005
X100792
Y100068
X97249
Y96131
X100792
Y92194
X97249
Y88257
X100792
X104331Y311024
X108268
X112205
X116142
X120079
X124016
X127953
X131890
X135827
X139764
X143701
X147638
X151575
X155512
X159449
X163386
X167323
X171260
Y314961
Y318898
X167323
X163386
X159449
X155512
X151575
Y314961
X147638Y318898
X143701
X139764
X135827
X131890
Y314961
X127953Y318898
X124016
X120079
X116142
X112205
X108268
Y314961
X112205
X121653
X141732
X161811
X104331Y318898
Y322835
X108268
Y326772
Y330709
X104331
Y334646
Y338583
X108268
Y334646
X100394
Y338583
X96457
X92520
X88583
X84646
X80709
X76772
X72835
X68898
X64961
X61024
X57087
X53150
X49213
X45276
X41339
Y334646
Y330709
Y326772
Y322835
Y318898
Y314961
Y311024
X45276
X49213
X53150
X57087
X61024
X64961
X68898
X72835
X76772
X80709
X84646
X88583
X92520
X96457
X100394
X98819Y314961
X100394Y318898
X96457
X92520
X88761Y319019
Y322956
X92520Y322835
X96457
X100394
X98425Y326772
X100394Y330709
X96457
X92520
X88583
Y326772
X84646Y322835
X80709
X76772
X72835
Y318898
X76772
X80709
X84646
X88976Y314961
X78740
X68898
Y318898
X64961
X61024
X57087
X53150
X49213
Y314961
X45276
Y318898
Y322835
Y326772
X49213
Y322835
X53150
X57087
X61024
X64961
X68898
Y326772
Y330709
X72835
X76772
X80709
X84646
Y334646
X88583
X92520
X96457
X80709
X76772
X72835
X68898
X64961
Y330709
X61024
X57087
X53150
X49213
X45276
Y334646
X49213
X53150
X57087
X61024
X59055Y326772
Y314961
X79134Y326772
T03
X107480Y25984
X111811
Y30709
X107480
X133602Y137223
X151221Y135433
X151575Y127953
X164465Y135494
X182366Y121399
X79134Y122441
X81890Y55905
X86221
Y51181
X81890
Y46457
X86221
Y41732
X81890
X77165
X72835
X79134Y141339
X89670Y140905
X98032Y198819
X84646Y274410
X111417Y198819
X135000Y193268
X124803Y176772
X184646Y147244
T04
X511811Y93110
Y103110
Y113110
Y123110
Y133110
X523622
Y123110
Y113110
Y103110
Y93110
X97835Y29528
X87835
X77835
X67835
X57835
X47835
X511811Y143110
X523622
X523622Y199409
Y209409
Y219409
Y229410
Y239409
Y249410
X511811
Y239409
Y229410
Y219409
Y209409
Y199409
X166732Y314961
X156732
X146732
X136732
X126732
X116732
Y326772
X126732
X136732
X146732
X156732
X166732
X103740Y326772
Y314961
X93740
X83740
X73740
X63740
X53740
Y326772
X63740
X73740
X83740
X93740
T06
X14567Y124409
X25197Y131890
X37795
X50394
Y143701
X37795
X25197
X61024Y151181
T07
X485236Y52559
Y128543
X199803
Y52559
Y213976
Y289961
X485236
Y213976
T08
X44882Y63779
X18110Y254331
X514173Y171260
T09
X453386Y52559
Y128543
X234409
Y52559
Y213976
Y289961
X453386
Y213976
M30
