G04*
G04 #@! TF.GenerationSoftware,Altium Limited,Altium Designer,24.5.2 (23)*
G04*
G04 Layer_Color=32896*
%FSLAX25Y25*%
%MOIN*%
G70*
G04*
G04 #@! TF.SameCoordinates,8FDF06D3-AC16-476C-BC71-0AF945C2432B*
G04*
G04*
G04 #@! TF.FilePolarity,Positive*
G04*
G01*
G75*
%ADD17C,0.03937*%
%ADD89C,0.03150*%
%ADD90C,0.02362*%
D17*
X178347Y97638D02*
D03*
X98032Y198819D02*
D03*
X111417D02*
D03*
X184646Y147244D02*
D03*
X151221Y135433D02*
D03*
X131503Y135113D02*
D03*
X79134Y141339D02*
D03*
X124803Y176772D02*
D03*
X84646Y274410D02*
D03*
X92913Y135827D02*
D03*
X79134Y122441D02*
D03*
X152362Y125984D02*
D03*
X113386Y30709D02*
D03*
Y25984D02*
D03*
X109055Y30709D02*
D03*
Y25984D02*
D03*
X173622Y138976D02*
D03*
D89*
X146461Y91012D02*
D03*
X150398D02*
D03*
X146461Y116210D02*
D03*
Y87075D02*
D03*
X150398Y116210D02*
D03*
Y87075D02*
D03*
X100792Y92194D02*
D03*
Y100068D02*
D03*
Y104005D02*
D03*
Y96131D02*
D03*
Y88257D02*
D03*
X97249D02*
D03*
Y92194D02*
D03*
Y100068D02*
D03*
Y104005D02*
D03*
Y107942D02*
D03*
X100792D02*
D03*
X97249Y111879D02*
D03*
X100792D02*
D03*
X97249Y115816D02*
D03*
X100792D02*
D03*
Y119753D02*
D03*
X97249D02*
D03*
X150398Y120147D02*
D03*
X97249Y96131D02*
D03*
X146461Y120147D02*
D03*
X152362Y68504D02*
D03*
Y74803D02*
D03*
X41339Y334646D02*
D03*
X45276D02*
D03*
X49213D02*
D03*
X53150D02*
D03*
X57087D02*
D03*
X61024D02*
D03*
X64961D02*
D03*
X72835D02*
D03*
X76772D02*
D03*
X68898D02*
D03*
X80709D02*
D03*
X84646D02*
D03*
X88583D02*
D03*
X92520D02*
D03*
X96457D02*
D03*
X100394D02*
D03*
X104331D02*
D03*
X108268D02*
D03*
X41339Y330709D02*
D03*
X104331D02*
D03*
X53150D02*
D03*
X80709D02*
D03*
X92520D02*
D03*
X45276D02*
D03*
X64961D02*
D03*
X57087D02*
D03*
X84646D02*
D03*
X96457D02*
D03*
X49213D02*
D03*
X72835D02*
D03*
X68898D02*
D03*
X88583D02*
D03*
X100394D02*
D03*
X108268D02*
D03*
X61024D02*
D03*
X76772D02*
D03*
X108268Y326772D02*
D03*
X88583D02*
D03*
X68898D02*
D03*
X49213D02*
D03*
X45276D02*
D03*
X41339D02*
D03*
X108268Y322835D02*
D03*
X104331D02*
D03*
X100394D02*
D03*
X96457D02*
D03*
X92520D02*
D03*
X68898D02*
D03*
X72835D02*
D03*
X64961D02*
D03*
X61024D02*
D03*
X57087D02*
D03*
X53150D02*
D03*
X49213D02*
D03*
X45276D02*
D03*
X41339D02*
D03*
X108268Y318898D02*
D03*
X104331D02*
D03*
X100394D02*
D03*
X96457D02*
D03*
X92520D02*
D03*
X68898D02*
D03*
X72835D02*
D03*
X64961D02*
D03*
X61024D02*
D03*
X57087D02*
D03*
X53150D02*
D03*
X49213D02*
D03*
X45276D02*
D03*
X41339D02*
D03*
X108268Y314961D02*
D03*
X68898D02*
D03*
X49213D02*
D03*
X45276D02*
D03*
X41339D02*
D03*
X108268Y311024D02*
D03*
X104331D02*
D03*
X100394D02*
D03*
X96457D02*
D03*
X92520D02*
D03*
X88583D02*
D03*
X84646D02*
D03*
X80709D02*
D03*
X68898D02*
D03*
X76772D02*
D03*
X72835D02*
D03*
X64961D02*
D03*
X61024D02*
D03*
X57087D02*
D03*
X53150D02*
D03*
X49213D02*
D03*
X45276D02*
D03*
X41339D02*
D03*
X112205Y318898D02*
D03*
X116142D02*
D03*
X120079D02*
D03*
X124016D02*
D03*
X127953D02*
D03*
X131890D02*
D03*
X143701D02*
D03*
X135827D02*
D03*
X139764D02*
D03*
X147638D02*
D03*
X151575D02*
D03*
X155512D02*
D03*
X159449D02*
D03*
X163386D02*
D03*
X167323D02*
D03*
X171260D02*
D03*
X112205Y314961D02*
D03*
X131890D02*
D03*
X151575D02*
D03*
X171260D02*
D03*
X112205Y311024D02*
D03*
X116142D02*
D03*
X120079D02*
D03*
X124016D02*
D03*
X127953D02*
D03*
X131890D02*
D03*
X143701D02*
D03*
X135827D02*
D03*
X139764D02*
D03*
X147638D02*
D03*
X151575D02*
D03*
X155512D02*
D03*
X159449D02*
D03*
X163386D02*
D03*
X167323D02*
D03*
X171260D02*
D03*
X59055Y326772D02*
D03*
X79134D02*
D03*
X98425D02*
D03*
X59055Y314961D02*
D03*
X98819D02*
D03*
X121653D02*
D03*
X141732D02*
D03*
X161811D02*
D03*
X41339Y338583D02*
D03*
X45276D02*
D03*
X49213D02*
D03*
X53150D02*
D03*
X57087D02*
D03*
X61024D02*
D03*
X64961D02*
D03*
X68898D02*
D03*
X80709D02*
D03*
X72835D02*
D03*
X76772D02*
D03*
X84646D02*
D03*
X88583D02*
D03*
X92520D02*
D03*
X96457D02*
D03*
X100394D02*
D03*
X104331D02*
D03*
X108268D02*
D03*
X76772Y318898D02*
D03*
X84646D02*
D03*
X80709D02*
D03*
X76772Y322835D02*
D03*
X84646D02*
D03*
X80709D02*
D03*
X88761Y322956D02*
D03*
Y319019D02*
D03*
X78740Y314961D02*
D03*
X88976D02*
D03*
X176378Y107874D02*
D03*
X146457Y112272D02*
D03*
X150394D02*
D03*
X146461Y94949D02*
D03*
X150398D02*
D03*
D90*
X472441Y51181D02*
D03*
X476378D02*
D03*
Y55118D02*
D03*
Y59055D02*
D03*
X472441D02*
D03*
Y55118D02*
D03*
Y62992D02*
D03*
X476378D02*
D03*
X480315D02*
D03*
X484252D02*
D03*
X488189D02*
D03*
X472441Y66929D02*
D03*
X476378D02*
D03*
X480315D02*
D03*
X484252D02*
D03*
X488189D02*
D03*
Y78740D02*
D03*
X484252D02*
D03*
X480315D02*
D03*
X476378D02*
D03*
X472441D02*
D03*
X488189Y74803D02*
D03*
X484252D02*
D03*
X480315D02*
D03*
X476378D02*
D03*
X472441D02*
D03*
Y70866D02*
D03*
X476378D02*
D03*
X480315D02*
D03*
X484252D02*
D03*
X488189D02*
D03*
Y94488D02*
D03*
X484252D02*
D03*
X480315D02*
D03*
X476378D02*
D03*
X472441D02*
D03*
Y98425D02*
D03*
X476378D02*
D03*
X480315D02*
D03*
X484252D02*
D03*
X488189D02*
D03*
X472441Y102362D02*
D03*
X476378D02*
D03*
X480315D02*
D03*
X484252D02*
D03*
X488189D02*
D03*
Y90551D02*
D03*
X484252D02*
D03*
X480315D02*
D03*
X476378D02*
D03*
X472441D02*
D03*
X488189Y86614D02*
D03*
X484252D02*
D03*
X480315D02*
D03*
X476378D02*
D03*
X472441D02*
D03*
Y82677D02*
D03*
X476378D02*
D03*
X480315D02*
D03*
X484252D02*
D03*
X488189D02*
D03*
Y118110D02*
D03*
X484252D02*
D03*
X480315D02*
D03*
X476378D02*
D03*
X472441D02*
D03*
Y122047D02*
D03*
X476378D02*
D03*
X472441Y125984D02*
D03*
X476378D02*
D03*
X488189Y114173D02*
D03*
X484252D02*
D03*
X480315D02*
D03*
X476378D02*
D03*
X472441D02*
D03*
X488189Y110236D02*
D03*
X484252D02*
D03*
X480315D02*
D03*
X476378D02*
D03*
X472441D02*
D03*
Y106299D02*
D03*
X476378D02*
D03*
X480315D02*
D03*
X484252D02*
D03*
X488189D02*
D03*
X476378Y129921D02*
D03*
X472441D02*
D03*
Y133858D02*
D03*
X476378D02*
D03*
X488189Y137795D02*
D03*
X484252D02*
D03*
X480315D02*
D03*
X476378D02*
D03*
X472441D02*
D03*
Y141732D02*
D03*
X476378D02*
D03*
X480315D02*
D03*
X484252D02*
D03*
X488189D02*
D03*
Y145669D02*
D03*
X484252D02*
D03*
X480315D02*
D03*
X476378D02*
D03*
X472441D02*
D03*
Y149606D02*
D03*
X476378D02*
D03*
X480315D02*
D03*
X484252D02*
D03*
X488189D02*
D03*
Y153543D02*
D03*
X484252D02*
D03*
X480315D02*
D03*
X476378D02*
D03*
X472441D02*
D03*
Y157480D02*
D03*
X476378D02*
D03*
X480315D02*
D03*
X484252D02*
D03*
X488189D02*
D03*
Y161417D02*
D03*
X484252D02*
D03*
X480315D02*
D03*
X476378D02*
D03*
X472441D02*
D03*
Y165354D02*
D03*
X476378D02*
D03*
X480315D02*
D03*
X484252D02*
D03*
X488189D02*
D03*
Y169291D02*
D03*
X484252D02*
D03*
X480315D02*
D03*
X476378D02*
D03*
X472441D02*
D03*
Y173228D02*
D03*
X476378D02*
D03*
X480315D02*
D03*
X484252D02*
D03*
X488189D02*
D03*
X476378Y177165D02*
D03*
X472441D02*
D03*
Y181102D02*
D03*
X476378D02*
D03*
Y185039D02*
D03*
X472441D02*
D03*
Y188976D02*
D03*
X476378D02*
D03*
X488189Y192913D02*
D03*
X484252D02*
D03*
X480315D02*
D03*
X476378D02*
D03*
X472441D02*
D03*
Y196850D02*
D03*
X476378D02*
D03*
X480315D02*
D03*
X484252D02*
D03*
X488189D02*
D03*
Y200787D02*
D03*
X484252D02*
D03*
X480315D02*
D03*
X476378D02*
D03*
X472441D02*
D03*
Y204724D02*
D03*
X476378D02*
D03*
X480315D02*
D03*
X484252D02*
D03*
X488189D02*
D03*
X476378Y208661D02*
D03*
X472441D02*
D03*
Y212598D02*
D03*
X476378D02*
D03*
Y216535D02*
D03*
X472441D02*
D03*
Y220472D02*
D03*
X476378D02*
D03*
X488189Y224410D02*
D03*
X484252D02*
D03*
X480315D02*
D03*
X476378D02*
D03*
X472441D02*
D03*
Y228346D02*
D03*
X476378D02*
D03*
X480315D02*
D03*
X484252D02*
D03*
X488189D02*
D03*
Y232283D02*
D03*
X484252D02*
D03*
X480315D02*
D03*
X476378D02*
D03*
X472441D02*
D03*
Y236221D02*
D03*
X476378D02*
D03*
X480315D02*
D03*
X484252D02*
D03*
X488189D02*
D03*
Y240158D02*
D03*
X484252D02*
D03*
X480315D02*
D03*
X476378D02*
D03*
X472441D02*
D03*
Y244094D02*
D03*
X476378D02*
D03*
X480315D02*
D03*
X484252D02*
D03*
X488189D02*
D03*
Y248031D02*
D03*
X484252D02*
D03*
X480315D02*
D03*
X476378D02*
D03*
X472441D02*
D03*
Y251969D02*
D03*
X476378D02*
D03*
X480315D02*
D03*
X484252D02*
D03*
X488189D02*
D03*
Y255906D02*
D03*
X484252D02*
D03*
X480315D02*
D03*
X476378D02*
D03*
X472441D02*
D03*
Y259842D02*
D03*
X476378D02*
D03*
X480315D02*
D03*
X484252D02*
D03*
X488189D02*
D03*
Y263779D02*
D03*
X484252D02*
D03*
X480315D02*
D03*
X476378D02*
D03*
X472441D02*
D03*
Y267717D02*
D03*
X476378D02*
D03*
X480315D02*
D03*
X484252D02*
D03*
X488189D02*
D03*
Y271654D02*
D03*
X484252D02*
D03*
X480315D02*
D03*
X476378D02*
D03*
X472441D02*
D03*
Y275590D02*
D03*
X476378D02*
D03*
X480315D02*
D03*
X484252D02*
D03*
X488189D02*
D03*
Y279528D02*
D03*
X484252D02*
D03*
X480315D02*
D03*
X476378D02*
D03*
X472441D02*
D03*
Y283465D02*
D03*
X476378D02*
D03*
Y287402D02*
D03*
X472441D02*
D03*
Y291339D02*
D03*
X476378D02*
D03*
X232283Y224409D02*
D03*
X228346D02*
D03*
X224410D02*
D03*
X220472D02*
D03*
X216535D02*
D03*
X212598D02*
D03*
Y220472D02*
D03*
X216535D02*
D03*
X220472D02*
D03*
X224410D02*
D03*
Y216535D02*
D03*
X220472D02*
D03*
X216535D02*
D03*
X212598D02*
D03*
Y212598D02*
D03*
X216535D02*
D03*
X220472D02*
D03*
X224410D02*
D03*
X216535Y208661D02*
D03*
X212598D02*
D03*
Y204724D02*
D03*
X216535D02*
D03*
X232283Y200787D02*
D03*
X216535D02*
D03*
X212598D02*
D03*
Y196850D02*
D03*
X216535D02*
D03*
X232283D02*
D03*
X228346Y192913D02*
D03*
X224410D02*
D03*
X220472D02*
D03*
X216535D02*
D03*
X212598D02*
D03*
Y188976D02*
D03*
X216535D02*
D03*
X220472D02*
D03*
X224410D02*
D03*
X220472Y185039D02*
D03*
X216535D02*
D03*
X212598D02*
D03*
Y181102D02*
D03*
X216535D02*
D03*
X220472D02*
D03*
X216535Y177165D02*
D03*
X212598D02*
D03*
Y173228D02*
D03*
X216535D02*
D03*
X232283Y169291D02*
D03*
X216535D02*
D03*
X212598D02*
D03*
Y165354D02*
D03*
X216535D02*
D03*
X232283D02*
D03*
Y161417D02*
D03*
X228346D02*
D03*
X224410D02*
D03*
X220472D02*
D03*
X216535D02*
D03*
X212598D02*
D03*
Y157480D02*
D03*
X216535D02*
D03*
X220472D02*
D03*
X224410D02*
D03*
X228346D02*
D03*
X232283D02*
D03*
Y153543D02*
D03*
X228346D02*
D03*
X224410D02*
D03*
X220472D02*
D03*
X216535D02*
D03*
X212598D02*
D03*
Y149606D02*
D03*
X216535D02*
D03*
X220472D02*
D03*
X224410D02*
D03*
X228346D02*
D03*
X232283D02*
D03*
Y145669D02*
D03*
X228346D02*
D03*
X224410D02*
D03*
X220472D02*
D03*
X216535D02*
D03*
X212598D02*
D03*
Y141732D02*
D03*
X216535D02*
D03*
X220472D02*
D03*
X224410D02*
D03*
X228346D02*
D03*
X232283D02*
D03*
X228346Y137795D02*
D03*
X224410D02*
D03*
X220472D02*
D03*
X216535D02*
D03*
X212598D02*
D03*
Y133858D02*
D03*
X216535D02*
D03*
X220472D02*
D03*
X224410D02*
D03*
Y129921D02*
D03*
X220472D02*
D03*
X216535D02*
D03*
X212598D02*
D03*
Y125984D02*
D03*
X216535D02*
D03*
X220472D02*
D03*
X224410D02*
D03*
X216535Y122047D02*
D03*
X212598D02*
D03*
Y118110D02*
D03*
X216535D02*
D03*
X232283D02*
D03*
X220472Y94488D02*
D03*
X216535D02*
D03*
X212598D02*
D03*
Y98425D02*
D03*
X216535D02*
D03*
X220472D02*
D03*
X224410D02*
D03*
X212598Y102362D02*
D03*
X216535D02*
D03*
X220472D02*
D03*
X224410D02*
D03*
X228346D02*
D03*
X232283D02*
D03*
Y114173D02*
D03*
X216535D02*
D03*
X212598D02*
D03*
X232283Y110236D02*
D03*
X216535D02*
D03*
X212598D02*
D03*
Y106299D02*
D03*
X216535D02*
D03*
X220472D02*
D03*
X224410D02*
D03*
X228346D02*
D03*
X232283D02*
D03*
Y70866D02*
D03*
X228346D02*
D03*
X224410D02*
D03*
X220472D02*
D03*
X216535D02*
D03*
X212598D02*
D03*
Y74803D02*
D03*
X216535D02*
D03*
X220472D02*
D03*
X224410D02*
D03*
X228346D02*
D03*
X232283D02*
D03*
X212598Y78740D02*
D03*
X216535D02*
D03*
X220472D02*
D03*
X224410D02*
D03*
X228346D02*
D03*
X232283D02*
D03*
X220472Y90551D02*
D03*
X216535D02*
D03*
X212598D02*
D03*
X220472Y86614D02*
D03*
X216535D02*
D03*
X212598D02*
D03*
Y82677D02*
D03*
X216535D02*
D03*
X220472D02*
D03*
X224410D02*
D03*
Y59055D02*
D03*
X220472D02*
D03*
X216535D02*
D03*
X212598D02*
D03*
Y62992D02*
D03*
X216535D02*
D03*
X220472D02*
D03*
X224410D02*
D03*
X228346D02*
D03*
X232283D02*
D03*
X212598Y66929D02*
D03*
X216535D02*
D03*
X220472D02*
D03*
X224410D02*
D03*
X228346D02*
D03*
X232283D02*
D03*
X220472Y55118D02*
D03*
X216535D02*
D03*
X212598D02*
D03*
X220472Y51181D02*
D03*
X216535D02*
D03*
X212598D02*
D03*
Y43307D02*
D03*
Y47244D02*
D03*
X216535D02*
D03*
Y43307D02*
D03*
X208661Y204724D02*
D03*
X204724D02*
D03*
X200787D02*
D03*
X196850D02*
D03*
X192913D02*
D03*
X208661Y208661D02*
D03*
X192913D02*
D03*
X208661Y212598D02*
D03*
X192913D02*
D03*
X208661Y216535D02*
D03*
X192913D02*
D03*
X208661Y220472D02*
D03*
X204724D02*
D03*
X200787D02*
D03*
X196850D02*
D03*
X192913D02*
D03*
X208661Y224410D02*
D03*
X204724D02*
D03*
X200787D02*
D03*
X196850D02*
D03*
X192913D02*
D03*
X204724Y208661D02*
D03*
X200787D02*
D03*
X196850D02*
D03*
X224410D02*
D03*
X220472D02*
D03*
X228346Y204724D02*
D03*
X224410D02*
D03*
X220472D02*
D03*
X228346Y200787D02*
D03*
X224410D02*
D03*
X220472D02*
D03*
X228346Y196850D02*
D03*
X224410D02*
D03*
X220472D02*
D03*
X224410Y177165D02*
D03*
X220472D02*
D03*
X228346Y173228D02*
D03*
X224410D02*
D03*
X220472D02*
D03*
X228346Y169291D02*
D03*
X224410D02*
D03*
X220472D02*
D03*
X228346Y165354D02*
D03*
X224410D02*
D03*
X220472D02*
D03*
X224410Y122047D02*
D03*
X220472D02*
D03*
X228346Y118110D02*
D03*
X224410D02*
D03*
X220472D02*
D03*
X228346Y114173D02*
D03*
X224410D02*
D03*
X220472D02*
D03*
X228346Y110236D02*
D03*
X224410D02*
D03*
X220472D02*
D03*
Y47244D02*
D03*
X228346Y43307D02*
D03*
X224410D02*
D03*
X196850Y47244D02*
D03*
X200787D02*
D03*
X204724D02*
D03*
X192913Y62992D02*
D03*
X196850D02*
D03*
X200787D02*
D03*
X204724D02*
D03*
X208661D02*
D03*
X192913Y59055D02*
D03*
X196850D02*
D03*
X200787D02*
D03*
X204724D02*
D03*
X208661D02*
D03*
X192913Y55118D02*
D03*
X208661D02*
D03*
X192913Y51181D02*
D03*
X208661D02*
D03*
X192913Y47244D02*
D03*
X208661D02*
D03*
X192913Y43307D02*
D03*
X196850D02*
D03*
X200787D02*
D03*
X204724D02*
D03*
X208661D02*
D03*
X232283Y192913D02*
D03*
X228346Y188976D02*
D03*
X232283D02*
D03*
X224410Y185039D02*
D03*
X228346D02*
D03*
X232283D02*
D03*
X224410Y181102D02*
D03*
X228346D02*
D03*
X232283D02*
D03*
X228346Y177165D02*
D03*
X232283D02*
D03*
Y173228D02*
D03*
X228346Y98425D02*
D03*
X232283D02*
D03*
X224410Y94488D02*
D03*
X228346D02*
D03*
X232283D02*
D03*
X224410Y90551D02*
D03*
X228346D02*
D03*
X232283D02*
D03*
X224410Y86614D02*
D03*
X228346D02*
D03*
X232283D02*
D03*
X228346Y82677D02*
D03*
X232283D02*
D03*
X220472Y43307D02*
D03*
M02*
