G04*
G04 #@! TF.GenerationSoftware,Altium Limited,Altium Designer,24.5.2 (23)*
G04*
G04 Layer_Physical_Order=1*
G04 Layer_Color=255*
%FSLAX25Y25*%
%MOIN*%
G70*
G04*
G04 #@! TF.SameCoordinates,CD8FA20F-01FC-4297-A75D-B57FFFDE6B4D*
G04*
G04*
G04 #@! TF.FilePolarity,Positive*
G04*
G01*
G75*
%ADD18R,0.05118X0.04724*%
%ADD19R,0.04724X0.05118*%
%ADD20R,0.04528X0.15551*%
%ADD21R,0.42913X0.35827*%
%ADD22C,0.03937*%
%ADD23R,0.13780X0.07284*%
%ADD24R,0.08268X0.08268*%
%ADD25R,0.01181X0.04724*%
%ADD26R,0.04724X0.01181*%
%ADD27R,0.08661X0.16929*%
%ADD28R,0.16929X0.08661*%
%ADD29R,0.05906X0.08661*%
%ADD30R,0.04016X0.03701*%
%ADD31R,0.21260X0.11417*%
%ADD32R,0.08976X0.04724*%
%ADD33R,0.25197X0.22835*%
%ADD34R,0.03701X0.04016*%
%ADD35R,0.07284X0.13780*%
%ADD36R,0.03150X0.03937*%
%ADD37R,0.03937X0.05512*%
%ADD38R,0.08268X0.05906*%
%ADD71C,0.03543*%
%ADD72C,0.01181*%
%ADD73C,0.03937*%
%ADD74C,0.03150*%
%ADD75C,0.01968*%
%ADD76C,0.11811*%
%ADD77C,0.12598*%
%ADD78R,0.19685X0.07874*%
%ADD79R,0.07874X0.19685*%
%ADD80C,0.04803*%
%ADD81R,0.04803X0.04803*%
%ADD82R,0.07874X0.07874*%
%ADD83C,0.07874*%
%ADD84R,0.04803X0.04803*%
%ADD85C,0.03150*%
%ADD86C,0.02756*%
%ADD87C,0.02362*%
G36*
X176181Y274640D02*
X137795D01*
X136767Y274505D01*
X135810Y274108D01*
X134987Y273477D01*
X134356Y272655D01*
X134349Y272638D01*
X131595D01*
Y275984D01*
X120374D01*
Y272638D01*
X109843D01*
Y273228D01*
X108874D01*
Y275878D01*
X101756D01*
Y273228D01*
X100787D01*
Y272638D01*
X81693D01*
Y302165D01*
X176181D01*
Y274640D01*
D02*
G37*
G36*
X110236Y320866D02*
X173228D01*
Y306299D01*
X70866D01*
Y278740D01*
Y259842D01*
X36417D01*
Y278740D01*
X39370Y281693D01*
Y306299D01*
Y340158D01*
X110236D01*
Y320866D01*
D02*
G37*
G36*
X77722Y302165D02*
Y272638D01*
X77857Y271610D01*
X78254Y270652D01*
X78885Y269830D01*
X79707Y269199D01*
X80665Y268802D01*
X81693Y268667D01*
X100787D01*
X101230Y268725D01*
X101756Y268264D01*
Y265535D01*
X104815D01*
Y268898D01*
X105815D01*
Y265535D01*
X108874D01*
Y268264D01*
X109400Y268725D01*
X109843Y268667D01*
X120374D01*
X120816Y268725D01*
X121343Y268264D01*
Y267626D01*
X125984D01*
X130626D01*
Y268264D01*
X131152Y268725D01*
X131595Y268667D01*
X133824D01*
Y257908D01*
X79724D01*
X78697Y257773D01*
X77739Y257376D01*
X76916Y256745D01*
X76285Y255923D01*
X75889Y254965D01*
X75753Y253937D01*
Y225394D01*
Y207677D01*
X75889Y206649D01*
X76285Y205692D01*
X76916Y204869D01*
X77739Y204238D01*
X78697Y203841D01*
X79724Y203706D01*
X100669D01*
Y202549D01*
X100041Y202239D01*
X100017Y202258D01*
X99059Y202655D01*
X98032Y202790D01*
X97004Y202655D01*
X96046Y202258D01*
X95224Y201627D01*
X94592Y200804D01*
X94196Y199847D01*
X94060Y198819D01*
Y198494D01*
X93675D01*
Y197525D01*
X91675D01*
Y188750D01*
Y179974D01*
X93675D01*
Y179006D01*
X100175D01*
X100772Y178756D01*
Y175697D01*
X104134D01*
Y175197D01*
X104634D01*
Y171638D01*
X105281D01*
Y165581D01*
X105336Y165162D01*
X105371Y164742D01*
X105403Y164650D01*
X105416Y164553D01*
X105578Y164163D01*
X105720Y163766D01*
X105776Y163686D01*
X105813Y163595D01*
X105974Y163386D01*
X105813Y163177D01*
X105776Y163086D01*
X105720Y163006D01*
X105578Y162609D01*
X105416Y162219D01*
X105403Y162122D01*
X105371Y162030D01*
X105336Y161609D01*
X105281Y161191D01*
Y154528D01*
X105416Y153500D01*
X105813Y152542D01*
X105898Y152431D01*
X105589Y151803D01*
X101913D01*
Y150835D01*
X100011D01*
Y147827D01*
X99511D01*
Y147327D01*
X96661D01*
Y144819D01*
X96000Y144724D01*
X90105D01*
Y144479D01*
X89670D01*
X88745Y144358D01*
X87883Y144001D01*
X87143Y143433D01*
X87143Y143433D01*
X87143Y143432D01*
X86575Y142692D01*
X86218Y141830D01*
X86096Y140905D01*
X86218Y139980D01*
X86575Y139119D01*
X87143Y138378D01*
X87883Y137810D01*
X88745Y137453D01*
X89670Y137331D01*
X90105Y136836D01*
Y130866D01*
X98058D01*
Y130989D01*
X105231D01*
Y131814D01*
X105839Y132281D01*
X108173Y134615D01*
X109443D01*
Y133114D01*
X110422D01*
Y128453D01*
X119887D01*
X129351D01*
Y133283D01*
X129958Y133508D01*
X132802D01*
Y133508D01*
X133046Y133722D01*
X133602Y133649D01*
X134527Y133771D01*
X135389Y134128D01*
X136129Y134696D01*
X136465Y135134D01*
X137165Y134897D01*
Y131457D01*
X150478D01*
X150570Y130757D01*
X150429Y130719D01*
X149752Y130328D01*
X149199Y129776D01*
X148809Y129099D01*
X148606Y128344D01*
Y127562D01*
X148607Y127558D01*
X148181Y127003D01*
X143701D01*
X142673Y126867D01*
X142272Y126701D01*
X141572Y127139D01*
Y127139D01*
X138513D01*
Y123777D01*
X138013D01*
Y123277D01*
X134454D01*
Y120627D01*
X133485D01*
Y111966D01*
X133659D01*
X133663Y111954D01*
X133143Y111254D01*
X106333D01*
Y118110D01*
X106198Y119138D01*
X105801Y120096D01*
X105170Y120918D01*
X104348Y121549D01*
X103390Y121946D01*
X102362Y122081D01*
X86648D01*
Y125591D01*
X86513Y126618D01*
X86116Y127576D01*
X85485Y128399D01*
X84663Y129030D01*
X83705Y129426D01*
X83110Y129505D01*
Y132756D01*
Y140394D01*
X82708D01*
Y141339D01*
X82586Y142264D01*
X82229Y143125D01*
X81661Y143866D01*
X80921Y144434D01*
X80059Y144791D01*
X79134Y144913D01*
X78209Y144791D01*
X77347Y144434D01*
X76607Y143866D01*
X76039Y143125D01*
X75682Y142264D01*
X75560Y141339D01*
Y140394D01*
X68071D01*
Y132756D01*
X69039D01*
Y130854D01*
X72047D01*
Y129854D01*
X69039D01*
Y129561D01*
X58673D01*
X58098Y130262D01*
X58268Y131114D01*
Y132665D01*
X57965Y134186D01*
X57372Y135619D01*
X56510Y136909D01*
X55624Y137795D01*
X56510Y138681D01*
X57372Y139971D01*
X57965Y141404D01*
X58268Y142925D01*
Y144476D01*
X57965Y145998D01*
X57725Y146576D01*
X58281Y147064D01*
X59118Y146581D01*
X60374Y146244D01*
X60524D01*
Y150681D01*
X56087D01*
Y150531D01*
X56232Y149988D01*
X55605Y149626D01*
X55413Y149817D01*
X54124Y150679D01*
X53372Y150990D01*
Y156466D01*
X53544Y156638D01*
X54062Y157536D01*
X54331Y158537D01*
Y159573D01*
X54062Y160575D01*
X53544Y161472D01*
X52811Y162206D01*
X51913Y162724D01*
X50912Y162992D01*
X49875D01*
X48874Y162724D01*
X48672Y162607D01*
X48066Y162957D01*
Y174016D01*
X48066Y174016D01*
X47930Y175043D01*
X47534Y176001D01*
X46902Y176824D01*
X46902Y176824D01*
X37436Y186291D01*
Y191815D01*
X66951Y191975D01*
X67453Y192044D01*
X67957Y192111D01*
X67967Y192115D01*
X67978Y192116D01*
X68445Y192313D01*
X68915Y192507D01*
X68923Y192514D01*
X68933Y192518D01*
X69334Y192829D01*
X69737Y193138D01*
X69744Y193147D01*
X69752Y193154D01*
X70059Y193558D01*
X70368Y193961D01*
X70372Y193971D01*
X70379Y193979D01*
X70571Y194450D01*
X70765Y194918D01*
X70766Y194929D01*
X70770Y194939D01*
X70834Y195443D01*
X70900Y195946D01*
Y247047D01*
X70765Y248075D01*
X70368Y249033D01*
X69737Y249855D01*
X68915Y250486D01*
X67957Y250883D01*
X66929Y251018D01*
X36820D01*
X35792Y250883D01*
X34835Y250486D01*
X34012Y249855D01*
X33381Y249033D01*
X32984Y248075D01*
X32849Y247047D01*
Y223470D01*
X29942D01*
Y224740D01*
X30131Y224929D01*
X30649Y225827D01*
X30917Y226828D01*
Y227865D01*
X30649Y228866D01*
X30131Y229764D01*
X29398Y230497D01*
X28500Y231015D01*
X27499Y231284D01*
X26462D01*
X25461Y231015D01*
X24563Y230497D01*
X23830Y229764D01*
X23312Y228866D01*
X23043Y227865D01*
Y226828D01*
X23312Y225827D01*
X23830Y224929D01*
X23985Y224774D01*
Y223470D01*
X20507D01*
Y222905D01*
X18543D01*
Y223150D01*
X17575D01*
Y225051D01*
X14567D01*
Y225551D01*
D01*
Y225051D01*
X11559D01*
Y223150D01*
X10591D01*
Y215512D01*
X18543D01*
Y215757D01*
X20507D01*
Y214808D01*
X32849D01*
Y209729D01*
X32568Y209483D01*
X17142D01*
Y210720D01*
X14567D01*
X11992D01*
Y209483D01*
X10095D01*
Y212653D01*
X7587D01*
Y209803D01*
X6587D01*
Y212653D01*
X4079D01*
Y209483D01*
X2196D01*
Y269571D01*
X3240Y269623D01*
X6942Y270172D01*
X10572Y271081D01*
X14095Y272342D01*
X17478Y273942D01*
X20688Y275866D01*
X23694Y278095D01*
X26467Y280608D01*
X28980Y283381D01*
X31209Y286387D01*
X33133Y289597D01*
X34733Y292980D01*
X35399Y292864D01*
Y283338D01*
X33609Y281548D01*
X32978Y280726D01*
X32582Y279768D01*
X32446Y278740D01*
Y259842D01*
X32582Y258815D01*
X32978Y257857D01*
X33609Y257035D01*
X34432Y256404D01*
X35390Y256007D01*
X36417Y255872D01*
X70866D01*
X71894Y256007D01*
X72852Y256404D01*
X73674Y257035D01*
X74305Y257857D01*
X74702Y258815D01*
X74837Y259842D01*
Y278740D01*
Y302328D01*
X77579D01*
X77722Y302165D01*
D02*
G37*
G36*
X176181Y225394D02*
X130905D01*
Y207677D01*
X79724D01*
Y225394D01*
Y253937D01*
X137795D01*
Y270669D01*
X176181D01*
Y225394D01*
D02*
G37*
G36*
X32717Y204981D02*
X32272Y204391D01*
X27464D01*
Y201029D01*
Y197666D01*
X32149D01*
X32452Y197666D01*
X32849Y197131D01*
Y196279D01*
X32850Y196274D01*
X32849Y196268D01*
X32918Y195758D01*
X32984Y195252D01*
X32986Y195247D01*
X32987Y195241D01*
X33185Y194767D01*
X33381Y194294D01*
X33384Y194290D01*
X33386Y194284D01*
X33465Y194183D01*
Y184646D01*
X44094Y174016D01*
Y151575D01*
Y125591D01*
X82677D01*
Y66929D01*
X68898D01*
Y111811D01*
X38583Y111811D01*
X31890Y118504D01*
Y151575D01*
X17323D01*
Y142913D01*
X2208D01*
Y160784D01*
X5906D01*
X5906Y160784D01*
Y160784D01*
X5990Y160801D01*
X7543Y160923D01*
X9139Y161307D01*
X10657Y161935D01*
X12057Y162793D01*
X13306Y163860D01*
X14372Y165109D01*
X15230Y166509D01*
X15859Y168026D01*
X16242Y169623D01*
X16371Y171260D01*
X16242Y172897D01*
X15859Y174494D01*
X15230Y176011D01*
X14372Y177411D01*
X13306Y178660D01*
X12057Y179727D01*
X10657Y180585D01*
X9139Y181213D01*
X7543Y181596D01*
X5990Y181719D01*
X5906Y181735D01*
X2196D01*
Y205512D01*
X4079D01*
Y204083D01*
X7087D01*
X10095D01*
Y205512D01*
X11992D01*
Y203453D01*
X14567D01*
X17142D01*
Y205512D01*
X32568D01*
X32717Y204981D01*
D02*
G37*
G36*
X66929Y195946D02*
X37316Y195786D01*
X36820Y196279D01*
Y247047D01*
X66929D01*
Y195946D01*
D02*
G37*
G36*
X500000Y340312D02*
D01*
X500672Y340204D01*
X501241Y339824D01*
X501622Y339254D01*
X501625Y339239D01*
X501729Y338583D01*
X501741Y338523D01*
X501741Y337883D01*
X501743Y308057D01*
X501756Y307988D01*
X501736Y307571D01*
X501920Y303834D01*
X502469Y300132D01*
X503378Y296502D01*
X504638Y292979D01*
X506238Y289597D01*
X508162Y286387D01*
X510391Y283381D01*
X512904Y280609D01*
X515677Y278096D01*
X518682Y275867D01*
X521892Y273943D01*
X525275Y272343D01*
X528798Y271082D01*
X532428Y270173D01*
X536129Y269624D01*
X537162Y269573D01*
Y181735D01*
X533465D01*
X533465Y181735D01*
Y181735D01*
X533380Y181719D01*
X531827Y181596D01*
X530231Y181213D01*
X528713Y180585D01*
X527313Y179727D01*
X526064Y178660D01*
X524998Y177411D01*
X524140Y176011D01*
X523511Y174494D01*
X523128Y172897D01*
X522999Y171260D01*
X523128Y169623D01*
X523511Y168026D01*
X524140Y166509D01*
X524998Y165109D01*
X526064Y163860D01*
X527313Y162793D01*
X528713Y161935D01*
X530231Y161307D01*
X531827Y160923D01*
X533380Y160801D01*
X533465Y160784D01*
X537162D01*
Y72948D01*
X536130Y72897D01*
X532429Y72348D01*
X528798Y71439D01*
X525275Y70178D01*
X521892Y68578D01*
X518682Y66654D01*
X515676Y64425D01*
X512903Y61912D01*
X510390Y59139D01*
X508161Y56133D01*
X506237Y52923D01*
X504637Y49540D01*
X503376Y46016D01*
X502467Y42386D01*
X501918Y38685D01*
X501734Y34947D01*
X501755Y34530D01*
X501741Y34461D01*
Y3996D01*
X501729Y3937D01*
X501729D01*
X501625Y3280D01*
X501622Y3265D01*
X501241Y2696D01*
X500672Y2315D01*
X500066Y2195D01*
X500000Y2208D01*
X39370D01*
X39304Y2195D01*
X38698Y2315D01*
X38129Y2696D01*
X37748Y3265D01*
X37745Y3280D01*
X37641Y3937D01*
X37641D01*
X37629Y3996D01*
Y34461D01*
X37615Y34530D01*
X37636Y34947D01*
X37452Y38685D01*
X36903Y42386D01*
X35994Y46016D01*
X34733Y49540D01*
X33133Y52923D01*
X31209Y56133D01*
X28980Y59139D01*
X26467Y61912D01*
X23694Y64425D01*
X20688Y66654D01*
X17478Y68578D01*
X14095Y70178D01*
X10572Y71439D01*
X6942Y72348D01*
X3240Y72897D01*
X2208Y72948D01*
Y138942D01*
X17323D01*
Y135827D01*
X17547D01*
X18015Y135127D01*
X17625Y134186D01*
X17323Y132665D01*
Y131114D01*
X17625Y129593D01*
X17865Y129014D01*
X17309Y128527D01*
X16473Y129010D01*
X15217Y129347D01*
X15067D01*
Y124909D01*
X19504D01*
Y125059D01*
X19358Y125603D01*
X19986Y125965D01*
X20177Y125774D01*
X21467Y124912D01*
X22900Y124318D01*
X24421Y124016D01*
X25972D01*
X27219Y124264D01*
X27919Y123825D01*
Y118504D01*
X28054Y117476D01*
X28451Y116518D01*
X29082Y115696D01*
X29082Y115696D01*
X34863Y109914D01*
X34596Y109268D01*
X33177D01*
Y98925D01*
X37614D01*
Y107437D01*
X38140Y107898D01*
X38583Y107840D01*
X49213Y107840D01*
Y87795D01*
X37614D01*
Y97925D01*
X32677D01*
X27740D01*
Y87583D01*
X30709D01*
Y72047D01*
X54056D01*
X54896Y71207D01*
Y43203D01*
X54997Y42432D01*
X55295Y41714D01*
X55768Y41097D01*
X61052Y35814D01*
X60655Y35220D01*
X59684Y35623D01*
X58459Y35866D01*
X57210D01*
X55986Y35623D01*
X54832Y35145D01*
X54791Y35117D01*
X54173Y35447D01*
Y35866D01*
X41496D01*
Y23189D01*
X45502D01*
X45729Y22894D01*
X58130Y10492D01*
X58747Y10019D01*
X59465Y9722D01*
X59851Y9671D01*
X60236Y9620D01*
X60236Y9620D01*
X104672D01*
X109705Y4587D01*
X109705Y4587D01*
X110322Y4114D01*
X111040Y3816D01*
X111811Y3715D01*
X111811Y3715D01*
X170472D01*
X171243Y3816D01*
X171962Y4114D01*
X172578Y4587D01*
X177697Y9705D01*
X177697Y9705D01*
X178170Y10322D01*
X178467Y11040D01*
X178569Y11811D01*
Y14079D01*
X178701Y14724D01*
X186653D01*
Y22362D01*
X185685D01*
Y24264D01*
X182677D01*
Y24764D01*
X182177D01*
Y27614D01*
X179669D01*
X179567Y28272D01*
Y28583D01*
X179164D01*
Y36580D01*
X234252D01*
X235280Y36715D01*
X236238Y37112D01*
X237060Y37743D01*
X237691Y38566D01*
X238088Y39523D01*
X238223Y40551D01*
Y41449D01*
X239748Y42081D01*
X241322Y43045D01*
X242725Y44244D01*
X243923Y45647D01*
X244887Y47220D01*
X245594Y48925D01*
X246024Y50719D01*
X246169Y52559D01*
X246024Y54399D01*
X245594Y56193D01*
X244887Y57898D01*
X243923Y59471D01*
X242725Y60874D01*
X241322Y62073D01*
X239748Y63037D01*
X238223Y63669D01*
Y100394D01*
Y117434D01*
X239748Y118065D01*
X241322Y119029D01*
X242725Y120228D01*
X243923Y121631D01*
X244887Y123205D01*
X245594Y124909D01*
X246024Y126704D01*
X246169Y128543D01*
X246024Y130383D01*
X245594Y132177D01*
X244887Y133882D01*
X243923Y135456D01*
X242725Y136859D01*
X241322Y138057D01*
X239748Y139021D01*
X238223Y139653D01*
X238223Y173228D01*
X238223Y173228D01*
Y202867D01*
X239748Y203498D01*
X241322Y204463D01*
X242725Y205661D01*
X243923Y207064D01*
X244887Y208638D01*
X245594Y210342D01*
X246024Y212137D01*
X246169Y213976D01*
X246024Y215816D01*
X245594Y217610D01*
X244887Y219315D01*
X243923Y220889D01*
X242725Y222292D01*
X241322Y223490D01*
X239748Y224454D01*
X238223Y225086D01*
Y226378D01*
X238088Y227406D01*
X237691Y228363D01*
X237060Y229186D01*
X236238Y229817D01*
X235280Y230214D01*
X234252Y230349D01*
X210630Y230349D01*
X190945D01*
X189917Y230214D01*
X188959Y229817D01*
X188137Y229186D01*
X187506Y228363D01*
X187109Y227406D01*
X186974Y226378D01*
Y202756D01*
X187109Y201728D01*
X187506Y200770D01*
X188137Y199948D01*
X188959Y199317D01*
X189917Y198920D01*
X190945Y198785D01*
X206659D01*
Y176018D01*
X173228D01*
X172804Y175962D01*
X172278Y176424D01*
Y182760D01*
X176862D01*
Y187402D01*
Y192043D01*
X172278D01*
Y196816D01*
X176181D01*
X177209Y196952D01*
X178167Y197348D01*
X178989Y197979D01*
X179620Y198802D01*
X180017Y199760D01*
X180152Y200787D01*
Y221423D01*
X180017Y222450D01*
X179620Y223408D01*
X180017Y224366D01*
X180152Y225394D01*
Y270669D01*
X180017Y271697D01*
X179620Y272655D01*
X180017Y273612D01*
X180152Y274640D01*
Y302165D01*
X180017Y303193D01*
X179620Y304151D01*
X178989Y304973D01*
X178167Y305604D01*
X177209Y306001D01*
X177161Y306007D01*
X177199Y306299D01*
Y320866D01*
X177064Y321894D01*
X176667Y322852D01*
X176036Y323674D01*
X175214Y324305D01*
X174256Y324702D01*
X173228Y324837D01*
X170134D01*
Y326272D01*
X163331D01*
Y324837D01*
X160243D01*
X160016Y325231D01*
X159923Y325537D01*
X160120Y326272D01*
X153345D01*
X153542Y325537D01*
X153449Y325231D01*
X153221Y324837D01*
X150243D01*
X150016Y325231D01*
X149923Y325537D01*
X150120Y326272D01*
X143345D01*
X143542Y325537D01*
X143449Y325231D01*
X143221Y324837D01*
X140243D01*
X140016Y325231D01*
X139923Y325537D01*
X140120Y326272D01*
X133345D01*
X133542Y325537D01*
X133449Y325231D01*
X133221Y324837D01*
X130243D01*
X130016Y325231D01*
X129923Y325537D01*
X130120Y326272D01*
X123345D01*
X123541Y325537D01*
X123449Y325231D01*
X123221Y324837D01*
X120243D01*
X120016Y325231D01*
X119923Y325537D01*
X120120Y326272D01*
X116732D01*
Y326772D01*
X116232D01*
Y330159D01*
X115419Y329941D01*
X114907Y329646D01*
X114207Y329987D01*
Y340158D01*
X114343Y340312D01*
X499315D01*
X500000Y340312D01*
D02*
G37*
G36*
X176181Y200787D02*
X168307D01*
Y142717D01*
X141732D01*
X141214Y143235D01*
X141481Y143882D01*
X152177D01*
Y155799D01*
X139079D01*
Y146285D01*
X138432Y146017D01*
X129921Y154527D01*
X109252Y154528D01*
Y161191D01*
X109444Y161314D01*
X109952Y161441D01*
X110382Y161010D01*
X111059Y160620D01*
X111705Y160447D01*
Y163386D01*
X112205D01*
D01*
X111705D01*
Y166325D01*
X111059Y166152D01*
X110382Y165761D01*
X109952Y165331D01*
X109444Y165457D01*
X109252Y165581D01*
Y171638D01*
X111114D01*
Y175197D01*
X111614D01*
Y175697D01*
X114976D01*
Y178756D01*
X115573Y179006D01*
X121241D01*
X121603Y178306D01*
X121351Y177697D01*
X121229Y176772D01*
X121351Y175847D01*
X121708Y174985D01*
X122276Y174245D01*
X123016Y173677D01*
X123878Y173320D01*
X124803Y173198D01*
X124961D01*
Y172795D01*
X138819D01*
Y180748D01*
X138819D01*
Y184606D01*
X138819D01*
Y192559D01*
X138772D01*
Y193268D01*
X138644Y194244D01*
X138267Y195154D01*
X137668Y195935D01*
X136886Y196535D01*
X135976Y196912D01*
X135000Y197040D01*
X134024Y196912D01*
X133135Y196544D01*
X133062Y196520D01*
X132246Y196751D01*
X131930Y197299D01*
X131197Y198032D01*
X130299Y198551D01*
X129298Y198819D01*
X128261D01*
X127260Y198551D01*
X126362Y198032D01*
X125629Y197299D01*
X125111Y196402D01*
X124843Y195400D01*
Y194364D01*
X125111Y193362D01*
X125222Y193170D01*
X124961Y192559D01*
X124427Y192157D01*
X122337D01*
Y198494D01*
X114386D01*
Y199210D01*
X114183Y199965D01*
X113793Y200642D01*
X113240Y201194D01*
X112563Y201585D01*
X111917Y201758D01*
Y198819D01*
X110917D01*
Y201758D01*
X110272Y201585D01*
X109952Y201401D01*
X109252Y201805D01*
Y203706D01*
X130905D01*
X131933Y203841D01*
X132891Y204238D01*
X133713Y204869D01*
X134344Y205692D01*
X134741Y206649D01*
X134877Y207677D01*
Y221423D01*
X176181D01*
Y200787D01*
D02*
G37*
G36*
X173228Y155084D02*
X206659D01*
Y131866D01*
X205959Y131727D01*
X205923Y131814D01*
X205167Y132945D01*
X204205Y133907D01*
X203074Y134663D01*
X201817Y135183D01*
X200483Y135449D01*
X200303D01*
Y128543D01*
Y121638D01*
X200483D01*
X201817Y121903D01*
X203074Y122424D01*
X204205Y123179D01*
X205167Y124141D01*
X205923Y125272D01*
X205959Y125360D01*
X206659Y125221D01*
Y119291D01*
Y100394D01*
Y63814D01*
X186236D01*
Y64067D01*
X182874D01*
Y65067D01*
X186236D01*
Y68094D01*
Y71153D01*
X182874D01*
Y71653D01*
X182374D01*
Y75213D01*
X179725D01*
Y76181D01*
X178968D01*
Y85630D01*
X178846Y86555D01*
X178489Y87417D01*
X177975Y88087D01*
Y94291D01*
X177887Y94959D01*
X177629Y95582D01*
X177219Y96116D01*
X173455Y99880D01*
X173569Y100756D01*
X178990Y106178D01*
X179401Y106712D01*
X179658Y107335D01*
X179746Y108003D01*
Y115157D01*
Y116929D01*
X181815D01*
Y117487D01*
X182226D01*
X183203Y117616D01*
X184112Y117993D01*
X184894Y118592D01*
X185493Y119374D01*
X185870Y120283D01*
X185998Y121260D01*
X185870Y122236D01*
X185493Y123146D01*
X184894Y123927D01*
X184112Y124527D01*
X183203Y124904D01*
X182226Y125032D01*
X181815D01*
Y125591D01*
X180846D01*
Y128240D01*
X177287D01*
Y128740D01*
X176787D01*
Y132102D01*
X173728D01*
Y131476D01*
X173283Y130961D01*
X170776D01*
Y128110D01*
X169776D01*
Y130961D01*
X168347D01*
Y131929D01*
X167944D01*
Y135399D01*
X167822Y136324D01*
X167465Y137186D01*
X166897Y137926D01*
X166742Y138046D01*
X166979Y138746D01*
X168307D01*
X169335Y138881D01*
X170293Y139278D01*
X171115Y139909D01*
X171746Y140731D01*
X172143Y141689D01*
X172278Y142717D01*
Y142913D01*
X184134D01*
Y143273D01*
X184646D01*
X185673Y143408D01*
X186631Y143805D01*
X187454Y144436D01*
X188085Y145259D01*
X188481Y146216D01*
X188617Y147244D01*
X188481Y148272D01*
X188085Y149230D01*
X187454Y150052D01*
X186631Y150683D01*
X185673Y151080D01*
X184646Y151215D01*
X184134D01*
Y151575D01*
X172278D01*
Y154678D01*
X172804Y155140D01*
X173228Y155084D01*
D02*
G37*
G36*
X156121Y109124D02*
X153942D01*
Y106761D01*
X143701D01*
Y123031D01*
X156121D01*
Y109124D01*
D02*
G37*
G36*
X153942Y98100D02*
X156304D01*
Y84646D01*
X143701D01*
Y100462D01*
X153942D01*
Y98100D01*
D02*
G37*
G36*
X102362Y84646D02*
X86614D01*
Y118110D01*
X102362D01*
Y84646D01*
D02*
G37*
G36*
X133858Y105580D02*
X153942D01*
Y101643D01*
X133858D01*
Y77756D01*
X106299D01*
Y84388D01*
X106333Y84646D01*
Y107283D01*
X133858D01*
Y105580D01*
D02*
G37*
G36*
X139730Y84646D02*
X139865Y83618D01*
X140262Y82660D01*
X140893Y81838D01*
X141715Y81207D01*
X142673Y80810D01*
X143701Y80675D01*
X144646D01*
Y75551D01*
X152574D01*
X153134Y75213D01*
Y72154D01*
X156496D01*
Y71153D01*
X153134D01*
Y68126D01*
X153134D01*
Y65067D01*
X156496D01*
Y64067D01*
X153134D01*
Y63814D01*
X107087D01*
X106059Y63678D01*
X105101Y63282D01*
X104279Y62650D01*
X103648Y61828D01*
X103251Y60870D01*
X103116Y59842D01*
Y40551D01*
X102965Y40380D01*
X64909D01*
X60852Y44437D01*
Y72441D01*
X60751Y73212D01*
X60453Y73930D01*
X59980Y74547D01*
X58268Y76259D01*
Y84646D01*
X64927D01*
Y66929D01*
X65062Y65901D01*
X65459Y64944D01*
X66090Y64121D01*
X66912Y63490D01*
X67870Y63094D01*
X68898Y62958D01*
X82677D01*
X83705Y63094D01*
X84663Y63490D01*
X85485Y64121D01*
X86116Y64944D01*
X86513Y65901D01*
X86648Y66929D01*
Y80675D01*
X102328D01*
Y77756D01*
X102463Y76728D01*
X102860Y75770D01*
X103491Y74948D01*
X104314Y74317D01*
X105271Y73920D01*
X106299Y73785D01*
X133858D01*
X134886Y73920D01*
X135844Y74317D01*
X136666Y74948D01*
X137297Y75770D01*
X137694Y76728D01*
X137829Y77756D01*
Y97672D01*
X139730D01*
Y84646D01*
D02*
G37*
G36*
X234252Y223228D02*
X233364Y223185D01*
X231623Y222838D01*
X229983Y222159D01*
X228507Y221173D01*
X227252Y219918D01*
X226266Y218442D01*
X225587Y216802D01*
X225240Y215061D01*
X225197Y214173D01*
X225197D01*
Y213779D01*
X225240Y212892D01*
X225587Y211151D01*
X226266Y209511D01*
X227252Y208035D01*
X228507Y206780D01*
X229983Y205794D01*
X231623Y205114D01*
X233364Y204768D01*
X234252Y204724D01*
Y173228D01*
X210630Y173228D01*
X234252D01*
X234252Y138189D01*
Y138189D01*
X233364Y138145D01*
X231623Y137799D01*
X229983Y137120D01*
X228507Y136134D01*
X227252Y134878D01*
X226266Y133402D01*
X225587Y131762D01*
X225240Y130021D01*
X225197Y129134D01*
X225197Y128347D01*
X225197D01*
X225240Y127459D01*
X225587Y125718D01*
X226266Y124078D01*
X227252Y122602D01*
X228507Y121347D01*
X229983Y120361D01*
X231623Y119681D01*
X233364Y119335D01*
X234252Y119291D01*
X210630Y119291D01*
X234252D01*
Y100394D01*
Y61811D01*
X210630D01*
Y100394D01*
Y119291D01*
Y159055D01*
X173228D01*
Y172047D01*
X210630D01*
Y173228D01*
Y202756D01*
X190945D01*
Y226378D01*
X210630D01*
X234252Y226378D01*
Y223228D01*
D02*
G37*
G36*
X233364Y61767D02*
X231623Y61421D01*
X229983Y60742D01*
X228507Y59756D01*
X227252Y58500D01*
X226266Y57025D01*
X225587Y55384D01*
X225240Y53644D01*
X225197Y52756D01*
Y51968D01*
X225239Y51120D01*
X225570Y49454D01*
X226220Y47886D01*
X227163Y46474D01*
X228363Y45273D01*
X229775Y44330D01*
X231344Y43680D01*
X233009Y43349D01*
X233858Y43307D01*
X233858Y43307D01*
X234252D01*
Y40551D01*
X172047D01*
Y59842D01*
X210630D01*
Y61811D01*
X234252D01*
X233364Y61767D01*
D02*
G37*
G36*
X166929Y40551D02*
X107087D01*
Y59842D01*
X166929D01*
Y40551D01*
D02*
G37*
G36*
X125559Y29285D02*
X125291Y28638D01*
X121957D01*
Y25185D01*
X126591D01*
Y27338D01*
X127237Y27606D01*
X132264Y22579D01*
X132264Y22579D01*
X132881Y22106D01*
X133599Y21808D01*
X134370Y21707D01*
X151181D01*
Y19764D01*
X151181D01*
Y19606D01*
X151181D01*
Y9764D01*
X150520Y9671D01*
X128221D01*
X127559Y9764D01*
Y19606D01*
X115354D01*
Y17663D01*
X113714D01*
X111043Y20334D01*
X110426Y20808D01*
X109708Y21105D01*
X108937Y21207D01*
X65025D01*
X61853Y24378D01*
X61875Y24604D01*
X62353Y25082D01*
X62835Y25431D01*
X63316Y25082D01*
X63794Y24604D01*
X64832Y23910D01*
X65986Y23433D01*
X67210Y23189D01*
X68459D01*
X69684Y23433D01*
X70837Y23910D01*
X71875Y24604D01*
X72353Y25082D01*
X72835Y25431D01*
X73316Y25082D01*
X73794Y24604D01*
X74832Y23910D01*
X75986Y23433D01*
X77210Y23189D01*
X78459D01*
X79684Y23433D01*
X80837Y23910D01*
X81875Y24604D01*
X82353Y25082D01*
X82835Y25431D01*
X83316Y25082D01*
X83794Y24604D01*
X84832Y23910D01*
X85986Y23433D01*
X87210Y23189D01*
X88459D01*
X89684Y23433D01*
X90837Y23910D01*
X91875Y24604D01*
X92353Y25082D01*
X92835Y25431D01*
X93316Y25082D01*
X93794Y24604D01*
X94832Y23910D01*
X95986Y23433D01*
X97210Y23189D01*
X98459D01*
X99684Y23433D01*
X100837Y23910D01*
X101875Y24604D01*
X102758Y25487D01*
X103452Y26525D01*
X103930Y27679D01*
X104173Y28903D01*
Y30152D01*
X103930Y31376D01*
X103452Y32530D01*
X102758Y33568D01*
X102550Y33777D01*
X102818Y34423D01*
X120420D01*
X125559Y29285D01*
D02*
G37*
%LPC*%
G36*
X171866Y296669D02*
X162902D01*
Y291839D01*
X171866D01*
Y296669D01*
D02*
G37*
G36*
X161902D02*
X152937D01*
Y291839D01*
X161902D01*
Y296669D01*
D02*
G37*
G36*
X130626Y295882D02*
X126484D01*
Y288492D01*
X130626D01*
Y295882D01*
D02*
G37*
G36*
X125484D02*
X121343D01*
Y288492D01*
X125484D01*
Y295882D01*
D02*
G37*
G36*
X96669Y295511D02*
X91839D01*
Y286547D01*
X96669D01*
Y295511D01*
D02*
G37*
G36*
X90838D02*
X86008D01*
Y286547D01*
X90838D01*
Y295511D01*
D02*
G37*
G36*
X171866Y290839D02*
X162902D01*
Y286008D01*
X171866D01*
Y290839D01*
D02*
G37*
G36*
X161902D02*
X152937D01*
Y286008D01*
X161902D01*
Y290839D01*
D02*
G37*
G36*
X130626Y287492D02*
X126484D01*
Y280102D01*
X130626D01*
Y287492D01*
D02*
G37*
G36*
X125484D02*
X121343D01*
Y280102D01*
X125484D01*
Y287492D01*
D02*
G37*
G36*
X108874Y279740D02*
X105815D01*
Y276878D01*
X108874D01*
Y279740D01*
D02*
G37*
G36*
X104815D02*
X101756D01*
Y276878D01*
X104815D01*
Y279740D01*
D02*
G37*
G36*
X96669Y285547D02*
X91839D01*
Y276582D01*
X96669D01*
Y285547D01*
D02*
G37*
G36*
X90838D02*
X86008D01*
Y276582D01*
X90838D01*
Y285547D01*
D02*
G37*
G36*
X27290Y273622D02*
X26253D01*
X25252Y273354D01*
X24354Y272835D01*
X23621Y272102D01*
X23103Y271205D01*
X22835Y270203D01*
Y269167D01*
X23103Y268165D01*
X23621Y267268D01*
X24354Y266535D01*
X25252Y266016D01*
X26253Y265748D01*
X27290D01*
X28291Y266016D01*
X29189Y266535D01*
X29922Y267268D01*
X30440Y268165D01*
X30709Y269167D01*
Y270203D01*
X30440Y271205D01*
X29922Y272102D01*
X29189Y272835D01*
X28291Y273354D01*
X27290Y273622D01*
D02*
G37*
G36*
X130626Y266626D02*
X126484D01*
Y259236D01*
X130626D01*
Y266626D01*
D02*
G37*
G36*
X125484D02*
X121343D01*
Y259236D01*
X125484D01*
Y266626D01*
D02*
G37*
G36*
X17575Y228402D02*
X15067D01*
Y226051D01*
X17575D01*
Y228402D01*
D02*
G37*
G36*
X14067D02*
X11559D01*
Y226051D01*
X14067D01*
Y228402D01*
D02*
G37*
G36*
X17142Y214189D02*
X15067D01*
Y211720D01*
X17142D01*
Y214189D01*
D02*
G37*
G36*
X14067D02*
X11992D01*
Y211720D01*
X14067D01*
Y214189D01*
D02*
G37*
G36*
X90675Y197525D02*
X87912D01*
Y189250D01*
X90675D01*
Y197525D01*
D02*
G37*
G36*
Y188250D02*
X87912D01*
Y179974D01*
X90675D01*
Y188250D01*
D02*
G37*
G36*
X103634Y174697D02*
X100772D01*
Y171638D01*
X103634D01*
Y174697D01*
D02*
G37*
G36*
X61674Y156118D02*
X61524D01*
Y151681D01*
X65961D01*
Y151831D01*
X65624Y153087D01*
X64974Y154212D01*
X64055Y155132D01*
X62929Y155782D01*
X61674Y156118D01*
D02*
G37*
G36*
X60524D02*
X60374D01*
X59118Y155782D01*
X57992Y155132D01*
X57073Y154212D01*
X56423Y153087D01*
X56087Y151831D01*
Y151681D01*
X60524D01*
Y156118D01*
D02*
G37*
G36*
X99011Y150835D02*
X96661D01*
Y148327D01*
X99011D01*
Y150835D01*
D02*
G37*
G36*
X65961Y150681D02*
X61524D01*
Y146244D01*
X61674D01*
X62929Y146581D01*
X64055Y147231D01*
X64974Y148150D01*
X65624Y149276D01*
X65961Y150531D01*
Y150681D01*
D02*
G37*
G36*
X137513Y127139D02*
X134454D01*
Y124277D01*
X137513D01*
Y127139D01*
D02*
G37*
G36*
X129351Y127453D02*
X120387D01*
Y122622D01*
X129351D01*
Y127453D01*
D02*
G37*
G36*
X119387D02*
X110422D01*
Y122622D01*
X119387D01*
Y127453D01*
D02*
G37*
G36*
X171866Y269110D02*
X162902D01*
Y264280D01*
X171866D01*
Y269110D01*
D02*
G37*
G36*
X161902D02*
X152937D01*
Y264280D01*
X161902D01*
Y269110D01*
D02*
G37*
G36*
X171866Y263280D02*
X162902D01*
Y258449D01*
X171866D01*
Y263280D01*
D02*
G37*
G36*
X161902D02*
X152937D01*
Y258449D01*
X161902D01*
Y263280D01*
D02*
G37*
G36*
X172913Y255921D02*
X161783D01*
Y249713D01*
X172913D01*
Y255921D01*
D02*
G37*
G36*
X160783D02*
X149653D01*
Y249713D01*
X160783D01*
Y255921D01*
D02*
G37*
G36*
X172913Y248713D02*
X161783D01*
Y242504D01*
X172913D01*
Y248713D01*
D02*
G37*
G36*
X160783D02*
X149653D01*
Y242504D01*
X160783D01*
Y248713D01*
D02*
G37*
G36*
X127097Y249002D02*
X105140D01*
Y230588D01*
X127097D01*
Y249002D01*
D02*
G37*
G36*
X104140D02*
X82183D01*
Y230588D01*
X104140D01*
Y249002D01*
D02*
G37*
G36*
X127097Y229588D02*
X105140D01*
Y211175D01*
X127097D01*
Y229588D01*
D02*
G37*
G36*
X104140D02*
X82183D01*
Y211175D01*
X104140D01*
Y229588D01*
D02*
G37*
G36*
X26464Y204391D02*
X21475D01*
Y201529D01*
X26464D01*
Y204391D01*
D02*
G37*
G36*
X10095Y203083D02*
X7587D01*
Y200732D01*
X10095D01*
Y203083D01*
D02*
G37*
G36*
X6587D02*
X4079D01*
Y200732D01*
X6587D01*
Y203083D01*
D02*
G37*
G36*
X17142Y202453D02*
X15067D01*
Y199984D01*
X17142D01*
Y202453D01*
D02*
G37*
G36*
X14067D02*
X11992D01*
Y199984D01*
X14067D01*
Y202453D01*
D02*
G37*
G36*
X26464Y200529D02*
X21475D01*
Y197666D01*
X26464D01*
Y200529D01*
D02*
G37*
G36*
X18610Y188372D02*
Y185933D01*
X21049D01*
X20876Y186579D01*
X20486Y187256D01*
X19933Y187809D01*
X19256Y188199D01*
X18610Y188372D01*
D02*
G37*
G36*
X17610Y188372D02*
X16964Y188199D01*
X16287Y187809D01*
X15735Y187256D01*
X15344Y186579D01*
X15171Y185933D01*
X17610D01*
Y188372D01*
D02*
G37*
G36*
Y184933D02*
X15171D01*
X15344Y184287D01*
X15735Y183610D01*
X16287Y183058D01*
X16964Y182667D01*
X17610Y182494D01*
Y184933D01*
D02*
G37*
G36*
X21049D02*
X18610D01*
Y182494D01*
X19256Y182667D01*
X19933Y183058D01*
X20486Y183610D01*
X20876Y184287D01*
X21049Y184933D01*
D02*
G37*
G36*
X60646Y244701D02*
X51681D01*
Y239870D01*
X60646D01*
Y244701D01*
D02*
G37*
G36*
X50681D02*
X41717D01*
Y239870D01*
X50681D01*
Y244701D01*
D02*
G37*
G36*
X60646Y238870D02*
X51681D01*
Y234039D01*
X60646D01*
Y238870D01*
D02*
G37*
G36*
X50681D02*
X41717D01*
Y234039D01*
X50681D01*
Y238870D01*
D02*
G37*
G36*
X65562Y222501D02*
X52464D01*
Y210584D01*
X65562D01*
Y222501D01*
D02*
G37*
G36*
X51464D02*
X38365D01*
Y210584D01*
X51464D01*
Y222501D01*
D02*
G37*
G36*
X65562Y209584D02*
X52464D01*
Y197667D01*
X65562D01*
Y209584D01*
D02*
G37*
G36*
X51464D02*
X38365D01*
Y197667D01*
X51464D01*
Y209584D01*
D02*
G37*
G36*
X170134Y330173D02*
X167232D01*
Y327272D01*
X170134D01*
Y330173D01*
D02*
G37*
G36*
X166232D02*
X163331D01*
Y327272D01*
X166232D01*
Y330173D01*
D02*
G37*
G36*
X157232Y330159D02*
Y327272D01*
X160120D01*
X159902Y328085D01*
X159454Y328860D01*
X158821Y329494D01*
X158045Y329941D01*
X157232Y330159D01*
D02*
G37*
G36*
X156232D02*
X155419Y329941D01*
X154644Y329494D01*
X154010Y328860D01*
X153562Y328085D01*
X153345Y327272D01*
X156232D01*
Y330159D01*
D02*
G37*
G36*
X147232D02*
Y327272D01*
X150120D01*
X149902Y328085D01*
X149454Y328860D01*
X148821Y329494D01*
X148045Y329941D01*
X147232Y330159D01*
D02*
G37*
G36*
X146232D02*
X145419Y329941D01*
X144644Y329494D01*
X144010Y328860D01*
X143562Y328085D01*
X143345Y327272D01*
X146232D01*
Y330159D01*
D02*
G37*
G36*
X137232D02*
Y327272D01*
X140120D01*
X139902Y328085D01*
X139454Y328860D01*
X138821Y329494D01*
X138045Y329941D01*
X137232Y330159D01*
D02*
G37*
G36*
X136232D02*
X135419Y329941D01*
X134644Y329494D01*
X134010Y328860D01*
X133563Y328085D01*
X133345Y327272D01*
X136232D01*
Y330159D01*
D02*
G37*
G36*
X127232D02*
Y327272D01*
X130120D01*
X129902Y328085D01*
X129454Y328860D01*
X128821Y329494D01*
X128045Y329941D01*
X127232Y330159D01*
D02*
G37*
G36*
X126232D02*
X125419Y329941D01*
X124644Y329494D01*
X124010Y328860D01*
X123563Y328085D01*
X123345Y327272D01*
X126232D01*
Y330159D01*
D02*
G37*
G36*
X117232D02*
Y327272D01*
X120120D01*
X119902Y328085D01*
X119454Y328860D01*
X118821Y329494D01*
X118045Y329941D01*
X117232Y330159D01*
D02*
G37*
G36*
X200483Y296866D02*
X200303D01*
Y290461D01*
X206709D01*
Y290641D01*
X206443Y291975D01*
X205923Y293232D01*
X205167Y294363D01*
X204205Y295324D01*
X203074Y296080D01*
X201817Y296601D01*
X200483Y296866D01*
D02*
G37*
G36*
X199303D02*
X199123D01*
X197789Y296601D01*
X196532Y296080D01*
X195401Y295324D01*
X194439Y294363D01*
X193684Y293232D01*
X193163Y291975D01*
X192898Y290641D01*
Y290461D01*
X199303D01*
Y296866D01*
D02*
G37*
G36*
X206709Y289461D02*
X200303D01*
Y283055D01*
X200483D01*
X201817Y283320D01*
X203074Y283841D01*
X204205Y284597D01*
X205167Y285559D01*
X205923Y286690D01*
X206443Y287946D01*
X206709Y289281D01*
Y289461D01*
D02*
G37*
G36*
X199303D02*
X192898D01*
Y289281D01*
X193163Y287946D01*
X193684Y286690D01*
X194439Y285559D01*
X195401Y284597D01*
X196532Y283841D01*
X197789Y283320D01*
X199123Y283055D01*
X199303D01*
Y289461D01*
D02*
G37*
G36*
X234409Y302744D02*
X232410Y302587D01*
X230459Y302118D01*
X228606Y301351D01*
X226895Y300303D01*
X225370Y299000D01*
X224067Y297475D01*
X223019Y295764D01*
X222252Y293911D01*
X221783Y291960D01*
X221626Y289961D01*
X221783Y287961D01*
X222252Y286010D01*
X223019Y284157D01*
X224067Y282447D01*
X225370Y280921D01*
X226895Y279619D01*
X228606Y278570D01*
X230459Y277803D01*
X232410Y277334D01*
X234409Y277177D01*
X236409Y277334D01*
X238360Y277803D01*
X240213Y278570D01*
X241923Y279619D01*
X243449Y280921D01*
X244752Y282447D01*
X245800Y284157D01*
X246567Y286010D01*
X247036Y287961D01*
X247193Y289961D01*
X247036Y291960D01*
X246567Y293911D01*
X245800Y295764D01*
X244752Y297475D01*
X243449Y299000D01*
X241923Y300303D01*
X240213Y301351D01*
X238360Y302118D01*
X236409Y302587D01*
X234409Y302744D01*
D02*
G37*
G36*
X515213Y252811D02*
X512311D01*
Y249909D01*
X515213D01*
Y252811D01*
D02*
G37*
G36*
X511311D02*
X508410D01*
Y249909D01*
X511311D01*
Y252811D01*
D02*
G37*
G36*
X527024D02*
X524122D01*
Y249909D01*
X527024D01*
Y252811D01*
D02*
G37*
G36*
X523122D02*
X520221D01*
Y249909D01*
X523122D01*
Y252811D01*
D02*
G37*
G36*
X527024Y248909D02*
X524122D01*
Y246008D01*
X527024D01*
Y248909D01*
D02*
G37*
G36*
X523122D02*
X520221D01*
Y246008D01*
X523122D01*
Y248909D01*
D02*
G37*
G36*
X515213Y248909D02*
X512311D01*
Y246008D01*
X515213D01*
Y248909D01*
D02*
G37*
G36*
X511311D02*
X508410D01*
Y246008D01*
X511311D01*
Y248909D01*
D02*
G37*
G36*
X512311Y242797D02*
Y239909D01*
X515199D01*
X514981Y240722D01*
X514533Y241498D01*
X513900Y242131D01*
X513124Y242579D01*
X512311Y242797D01*
D02*
G37*
G36*
X511311D02*
X510498Y242579D01*
X509722Y242131D01*
X509089Y241498D01*
X508641Y240722D01*
X508423Y239909D01*
X511311D01*
Y242797D01*
D02*
G37*
G36*
X524122Y242797D02*
Y239909D01*
X527010D01*
X526792Y240722D01*
X526344Y241498D01*
X525711Y242131D01*
X524935Y242579D01*
X524122Y242797D01*
D02*
G37*
G36*
X523122Y242797D02*
X522309Y242579D01*
X521533Y242131D01*
X520900Y241498D01*
X520452Y240722D01*
X520234Y239909D01*
X523122D01*
Y242797D01*
D02*
G37*
G36*
X527010Y238909D02*
X524122D01*
Y236022D01*
X524935Y236240D01*
X525711Y236687D01*
X526344Y237321D01*
X526792Y238096D01*
X527010Y238909D01*
D02*
G37*
G36*
X515199Y238909D02*
X512311D01*
Y236022D01*
X513124Y236240D01*
X513900Y236687D01*
X514533Y237321D01*
X514981Y238096D01*
X515199Y238909D01*
D02*
G37*
G36*
X511311D02*
X508423D01*
X508641Y238096D01*
X509089Y237321D01*
X509722Y236687D01*
X510498Y236240D01*
X511311Y236022D01*
Y238909D01*
D02*
G37*
G36*
X523122Y238909D02*
X520234D01*
X520452Y238096D01*
X520900Y237321D01*
X521533Y236687D01*
X522309Y236240D01*
X523122Y236022D01*
Y238909D01*
D02*
G37*
G36*
X512311Y232797D02*
Y229909D01*
X515199D01*
X514981Y230722D01*
X514533Y231498D01*
X513900Y232131D01*
X513124Y232579D01*
X512311Y232797D01*
D02*
G37*
G36*
X511311D02*
X510498Y232579D01*
X509722Y232131D01*
X509089Y231498D01*
X508641Y230722D01*
X508423Y229909D01*
X511311D01*
Y232797D01*
D02*
G37*
G36*
X524122Y232797D02*
Y229909D01*
X527010D01*
X526792Y230722D01*
X526344Y231498D01*
X525711Y232131D01*
X524935Y232579D01*
X524122Y232797D01*
D02*
G37*
G36*
X523122Y232797D02*
X522309Y232579D01*
X521533Y232131D01*
X520900Y231498D01*
X520452Y230722D01*
X520234Y229909D01*
X523122D01*
Y232797D01*
D02*
G37*
G36*
X527010Y228909D02*
X524122D01*
Y226022D01*
X524935Y226240D01*
X525711Y226688D01*
X526344Y227321D01*
X526792Y228097D01*
X527010Y228909D01*
D02*
G37*
G36*
X515199Y228909D02*
X512311D01*
Y226022D01*
X513124Y226240D01*
X513900Y226688D01*
X514533Y227321D01*
X514981Y228097D01*
X515199Y228909D01*
D02*
G37*
G36*
X511311D02*
X508423D01*
X508641Y228097D01*
X509089Y227321D01*
X509722Y226688D01*
X510498Y226240D01*
X511311Y226022D01*
Y228909D01*
D02*
G37*
G36*
X523122Y228909D02*
X520234D01*
X520452Y228097D01*
X520900Y227321D01*
X521533Y226688D01*
X522309Y226240D01*
X523122Y226022D01*
Y228909D01*
D02*
G37*
G36*
X512311Y222797D02*
Y219909D01*
X515199D01*
X514981Y220722D01*
X514533Y221498D01*
X513900Y222131D01*
X513124Y222579D01*
X512311Y222797D01*
D02*
G37*
G36*
X511311D02*
X510498Y222579D01*
X509722Y222131D01*
X509089Y221498D01*
X508641Y220722D01*
X508423Y219909D01*
X511311D01*
Y222797D01*
D02*
G37*
G36*
X524122Y222797D02*
Y219909D01*
X527010D01*
X526792Y220722D01*
X526344Y221498D01*
X525711Y222131D01*
X524935Y222579D01*
X524122Y222797D01*
D02*
G37*
G36*
X523122Y222797D02*
X522309Y222579D01*
X521533Y222131D01*
X520900Y221498D01*
X520452Y220722D01*
X520234Y219909D01*
X523122D01*
Y222797D01*
D02*
G37*
G36*
X453386Y302744D02*
X451386Y302587D01*
X449436Y302118D01*
X447582Y301351D01*
X445872Y300303D01*
X444347Y299000D01*
X443044Y297475D01*
X441996Y295764D01*
X441228Y293911D01*
X440760Y291960D01*
X440602Y289961D01*
X440760Y287961D01*
X441228Y286010D01*
X441996Y284157D01*
X443044Y282447D01*
X444347Y280921D01*
X445872Y279619D01*
X447582Y278570D01*
X449436Y277803D01*
X451386Y277334D01*
X453386Y277177D01*
X455386Y277334D01*
X457336Y277803D01*
X459189Y278570D01*
X460900Y279619D01*
X462425Y280921D01*
X463728Y282447D01*
X464776Y284157D01*
X465544Y286010D01*
X465801Y287084D01*
X466502Y287001D01*
Y216936D01*
X465801Y216853D01*
X465544Y217927D01*
X464776Y219780D01*
X463728Y221490D01*
X462425Y223016D01*
X460900Y224318D01*
X459189Y225367D01*
X457336Y226134D01*
X455386Y226603D01*
X453386Y226760D01*
X451386Y226603D01*
X449436Y226134D01*
X447582Y225367D01*
X445872Y224318D01*
X444347Y223016D01*
X443044Y221490D01*
X441996Y219780D01*
X441228Y217927D01*
X440760Y215976D01*
X440602Y213976D01*
X440760Y211977D01*
X441228Y210026D01*
X441996Y208173D01*
X443044Y206462D01*
X444347Y204937D01*
X445872Y203634D01*
X447582Y202586D01*
X449436Y201818D01*
X451386Y201350D01*
X453386Y201193D01*
X455386Y201350D01*
X457336Y201818D01*
X459189Y202586D01*
X460900Y203634D01*
X462425Y204937D01*
X463728Y206462D01*
X464776Y208173D01*
X465544Y210026D01*
X465801Y211100D01*
X466502Y211017D01*
Y131503D01*
X465801Y131420D01*
X465544Y132494D01*
X464776Y134347D01*
X463728Y136057D01*
X462425Y137583D01*
X460900Y138885D01*
X459189Y139934D01*
X457336Y140701D01*
X455386Y141169D01*
X453386Y141327D01*
X451386Y141169D01*
X449436Y140701D01*
X447582Y139934D01*
X445872Y138885D01*
X444347Y137583D01*
X443044Y136057D01*
X441996Y134347D01*
X441228Y132494D01*
X440760Y130543D01*
X440602Y128543D01*
X440760Y126543D01*
X441228Y124593D01*
X441996Y122740D01*
X443044Y121029D01*
X444347Y119504D01*
X445872Y118201D01*
X447582Y117153D01*
X449436Y116385D01*
X451386Y115917D01*
X453386Y115760D01*
X455386Y115917D01*
X457336Y116385D01*
X459189Y117153D01*
X460900Y118201D01*
X462425Y119504D01*
X463728Y121029D01*
X464776Y122740D01*
X465544Y124593D01*
X465801Y125667D01*
X466502Y125584D01*
Y55519D01*
X465801Y55436D01*
X465544Y56509D01*
X464776Y58363D01*
X463728Y60073D01*
X462425Y61598D01*
X460900Y62901D01*
X459190Y63949D01*
X457336Y64717D01*
X455386Y65185D01*
X453386Y65343D01*
X451386Y65185D01*
X449436Y64717D01*
X447582Y63949D01*
X445872Y62901D01*
X444346Y61598D01*
X443044Y60073D01*
X441995Y58363D01*
X441228Y56509D01*
X440760Y54559D01*
X440602Y52559D01*
X440760Y50559D01*
X441228Y48609D01*
X441995Y46755D01*
X443044Y45045D01*
X444346Y43520D01*
X445872Y42217D01*
X447582Y41169D01*
X449436Y40401D01*
X451386Y39933D01*
X453386Y39775D01*
X455386Y39933D01*
X457336Y40401D01*
X459190Y41169D01*
X460900Y42217D01*
X462425Y43520D01*
X463728Y45045D01*
X464776Y46755D01*
X465544Y48609D01*
X465801Y49682D01*
X466502Y49599D01*
Y47244D01*
X466637Y46216D01*
X467033Y45259D01*
X467664Y44436D01*
X468487Y43805D01*
X469445Y43408D01*
X470472Y43273D01*
X481935D01*
X482365Y43095D01*
X484267Y42717D01*
X486206D01*
X488107Y43095D01*
X488538Y43273D01*
X490158D01*
X491185Y43408D01*
X492143Y43805D01*
X492965Y44436D01*
X493597Y45259D01*
X493993Y46216D01*
X494129Y47244D01*
Y48307D01*
X494700Y49688D01*
X495079Y51590D01*
Y53528D01*
X494700Y55430D01*
X494129Y56811D01*
Y124291D01*
X494700Y125672D01*
X495079Y127574D01*
Y129513D01*
X494700Y131414D01*
X494129Y132795D01*
Y209724D01*
X494700Y211105D01*
X495079Y213007D01*
Y214946D01*
X494700Y216847D01*
X494129Y218228D01*
Y285709D01*
X494700Y287090D01*
X495079Y288991D01*
Y290930D01*
X494700Y292832D01*
X494129Y294213D01*
Y295276D01*
X493993Y296303D01*
X493597Y297261D01*
X492965Y298083D01*
X492143Y298715D01*
X491185Y299111D01*
X490158Y299247D01*
X488538D01*
X488107Y299425D01*
X486206Y299803D01*
X484267D01*
X482365Y299425D01*
X481935Y299247D01*
X470472D01*
X469445Y299111D01*
X468487Y298715D01*
X467664Y298083D01*
X467033Y297261D01*
X466637Y296303D01*
X466502Y295276D01*
Y292920D01*
X465801Y292837D01*
X465544Y293911D01*
X464776Y295764D01*
X463728Y297475D01*
X462425Y299000D01*
X460900Y300303D01*
X459189Y301351D01*
X457336Y302118D01*
X455386Y302587D01*
X453386Y302744D01*
D02*
G37*
G36*
X527010Y218909D02*
X524122D01*
Y216022D01*
X524935Y216240D01*
X525711Y216687D01*
X526344Y217321D01*
X526792Y218096D01*
X527010Y218909D01*
D02*
G37*
G36*
X515199Y218909D02*
X512311D01*
Y216022D01*
X513124Y216240D01*
X513900Y216687D01*
X514533Y217321D01*
X514981Y218096D01*
X515199Y218909D01*
D02*
G37*
G36*
X511311D02*
X508423D01*
X508641Y218096D01*
X509089Y217321D01*
X509722Y216687D01*
X510498Y216240D01*
X511311Y216022D01*
Y218909D01*
D02*
G37*
G36*
X523122Y218909D02*
X520234D01*
X520452Y218096D01*
X520900Y217321D01*
X521533Y216687D01*
X522309Y216240D01*
X523122Y216022D01*
Y218909D01*
D02*
G37*
G36*
X512311Y212797D02*
Y209909D01*
X515199D01*
X514981Y210722D01*
X514533Y211498D01*
X513900Y212131D01*
X513124Y212579D01*
X512311Y212797D01*
D02*
G37*
G36*
X511311D02*
X510498Y212579D01*
X509722Y212131D01*
X509089Y211498D01*
X508641Y210722D01*
X508423Y209909D01*
X511311D01*
Y212797D01*
D02*
G37*
G36*
X524122Y212797D02*
Y209909D01*
X527010D01*
X526792Y210722D01*
X526344Y211498D01*
X525711Y212131D01*
X524935Y212579D01*
X524122Y212797D01*
D02*
G37*
G36*
X523122Y212797D02*
X522309Y212579D01*
X521533Y212131D01*
X520900Y211498D01*
X520452Y210722D01*
X520234Y209909D01*
X523122D01*
Y212797D01*
D02*
G37*
G36*
X527010Y208909D02*
X524122D01*
Y206022D01*
X524935Y206240D01*
X525711Y206687D01*
X526344Y207321D01*
X526792Y208097D01*
X527010Y208909D01*
D02*
G37*
G36*
X515199Y208909D02*
X512311D01*
Y206022D01*
X513124Y206240D01*
X513900Y206687D01*
X514533Y207321D01*
X514981Y208097D01*
X515199Y208909D01*
D02*
G37*
G36*
X511311D02*
X508423D01*
X508641Y208097D01*
X509089Y207321D01*
X509722Y206687D01*
X510498Y206240D01*
X511311Y206022D01*
Y208909D01*
D02*
G37*
G36*
X523122Y208909D02*
X520234D01*
X520452Y208097D01*
X520900Y207321D01*
X521533Y206687D01*
X522309Y206240D01*
X523122Y206022D01*
Y208909D01*
D02*
G37*
G36*
X512311Y202797D02*
Y199909D01*
X515199D01*
X514981Y200722D01*
X514533Y201498D01*
X513900Y202131D01*
X513124Y202579D01*
X512311Y202797D01*
D02*
G37*
G36*
X511311D02*
X510498Y202579D01*
X509722Y202131D01*
X509089Y201498D01*
X508641Y200722D01*
X508423Y199909D01*
X511311D01*
Y202797D01*
D02*
G37*
G36*
X524122Y202797D02*
Y199909D01*
X527010D01*
X526792Y200722D01*
X526344Y201498D01*
X525711Y202131D01*
X524935Y202579D01*
X524122Y202797D01*
D02*
G37*
G36*
X523122Y202797D02*
X522309Y202579D01*
X521533Y202131D01*
X520900Y201498D01*
X520452Y200722D01*
X520234Y199909D01*
X523122D01*
Y202797D01*
D02*
G37*
G36*
X527010Y198909D02*
X524122D01*
Y196022D01*
X524935Y196240D01*
X525711Y196687D01*
X526344Y197321D01*
X526792Y198097D01*
X527010Y198909D01*
D02*
G37*
G36*
X515199Y198909D02*
X512311D01*
Y196022D01*
X513124Y196240D01*
X513900Y196687D01*
X514533Y197321D01*
X514981Y198097D01*
X515199Y198909D01*
D02*
G37*
G36*
X511311D02*
X508423D01*
X508641Y198097D01*
X509089Y197321D01*
X509722Y196687D01*
X510498Y196240D01*
X511311Y196022D01*
Y198909D01*
D02*
G37*
G36*
X523122Y198909D02*
X520234D01*
X520452Y198097D01*
X520900Y197321D01*
X521533Y196687D01*
X522309Y196240D01*
X523122Y196022D01*
Y198909D01*
D02*
G37*
G36*
X185252Y192043D02*
X177862D01*
Y187902D01*
X185252D01*
Y192043D01*
D02*
G37*
G36*
Y186902D02*
X177862D01*
Y182760D01*
X185252D01*
Y186902D01*
D02*
G37*
G36*
X515213Y146512D02*
X512311D01*
Y143610D01*
X515213D01*
Y146512D01*
D02*
G37*
G36*
X511311D02*
X508409D01*
Y143610D01*
X511311D01*
Y146512D01*
D02*
G37*
G36*
X527024D02*
X524122D01*
Y143610D01*
X527024D01*
Y146512D01*
D02*
G37*
G36*
X523122D02*
X520221D01*
Y143610D01*
X523122D01*
Y146512D01*
D02*
G37*
G36*
X527024Y142610D02*
X524122D01*
Y139709D01*
X527024D01*
Y142610D01*
D02*
G37*
G36*
X523122D02*
X520221D01*
Y139709D01*
X523122D01*
Y142610D01*
D02*
G37*
G36*
X515213Y142610D02*
X512311D01*
Y139709D01*
X515213D01*
Y142610D01*
D02*
G37*
G36*
X511311D02*
X508409D01*
Y139709D01*
X511311D01*
Y142610D01*
D02*
G37*
G36*
X512311Y136498D02*
Y133610D01*
X515199D01*
X514981Y134423D01*
X514533Y135199D01*
X513900Y135832D01*
X513124Y136280D01*
X512311Y136498D01*
D02*
G37*
G36*
X511311Y136498D02*
X510498Y136280D01*
X509722Y135832D01*
X509089Y135199D01*
X508641Y134423D01*
X508423Y133610D01*
X511311D01*
Y136498D01*
D02*
G37*
G36*
X524122Y136498D02*
Y133610D01*
X527010D01*
X526792Y134423D01*
X526344Y135199D01*
X525711Y135832D01*
X524935Y136280D01*
X524122Y136498D01*
D02*
G37*
G36*
X523122Y136498D02*
X522309Y136280D01*
X521533Y135832D01*
X520900Y135199D01*
X520452Y134423D01*
X520234Y133610D01*
X523122D01*
Y136498D01*
D02*
G37*
G36*
X527010Y132610D02*
X524122D01*
Y129723D01*
X524935Y129940D01*
X525711Y130388D01*
X526344Y131022D01*
X526792Y131797D01*
X527010Y132610D01*
D02*
G37*
G36*
X515199Y132610D02*
X512311D01*
Y129723D01*
X513124Y129940D01*
X513900Y130388D01*
X514533Y131022D01*
X514981Y131797D01*
X515199Y132610D01*
D02*
G37*
G36*
X511311D02*
X508423D01*
X508641Y131797D01*
X509089Y131022D01*
X509722Y130388D01*
X510498Y129940D01*
X511311Y129723D01*
Y132610D01*
D02*
G37*
G36*
X523122Y132610D02*
X520234D01*
X520452Y131797D01*
X520900Y131022D01*
X521533Y130388D01*
X522309Y129940D01*
X523122Y129723D01*
Y132610D01*
D02*
G37*
G36*
X14067Y129347D02*
X13917D01*
X12661Y129010D01*
X11535Y128360D01*
X10616Y127441D01*
X9966Y126315D01*
X9630Y125059D01*
Y124909D01*
X14067D01*
Y129347D01*
D02*
G37*
G36*
X512311Y126498D02*
Y123610D01*
X515199D01*
X514981Y124423D01*
X514533Y125199D01*
X513900Y125832D01*
X513124Y126280D01*
X512311Y126498D01*
D02*
G37*
G36*
X511311Y126498D02*
X510498Y126280D01*
X509722Y125832D01*
X509089Y125199D01*
X508641Y124423D01*
X508423Y123610D01*
X511311D01*
Y126498D01*
D02*
G37*
G36*
X524122Y126498D02*
Y123610D01*
X527010D01*
X526792Y124423D01*
X526344Y125199D01*
X525711Y125832D01*
X524935Y126280D01*
X524122Y126498D01*
D02*
G37*
G36*
X523122Y126498D02*
X522309Y126280D01*
X521533Y125832D01*
X520900Y125199D01*
X520452Y124423D01*
X520234Y123610D01*
X523122D01*
Y126498D01*
D02*
G37*
G36*
X527010Y122610D02*
X524122D01*
Y119723D01*
X524935Y119940D01*
X525711Y120388D01*
X526344Y121022D01*
X526792Y121797D01*
X527010Y122610D01*
D02*
G37*
G36*
X515199Y122610D02*
X512311D01*
Y119723D01*
X513124Y119940D01*
X513900Y120388D01*
X514533Y121022D01*
X514981Y121797D01*
X515199Y122610D01*
D02*
G37*
G36*
X511311D02*
X508423D01*
X508641Y121797D01*
X509089Y121022D01*
X509722Y120388D01*
X510498Y119940D01*
X511311Y119723D01*
Y122610D01*
D02*
G37*
G36*
X523122Y122610D02*
X520234D01*
X520452Y121797D01*
X520900Y121022D01*
X521533Y120388D01*
X522309Y119940D01*
X523122Y119723D01*
Y122610D01*
D02*
G37*
G36*
X19504Y123909D02*
X15067D01*
Y119472D01*
X15217D01*
X16473Y119809D01*
X17598Y120459D01*
X18518Y121378D01*
X19168Y122504D01*
X19504Y123759D01*
Y123909D01*
D02*
G37*
G36*
X14067D02*
X9630D01*
Y123759D01*
X9966Y122504D01*
X10616Y121378D01*
X11535Y120459D01*
X12661Y119809D01*
X13917Y119472D01*
X14067D01*
Y123909D01*
D02*
G37*
G36*
X512311Y116498D02*
Y113610D01*
X515199D01*
X514981Y114423D01*
X514533Y115199D01*
X513900Y115832D01*
X513124Y116280D01*
X512311Y116498D01*
D02*
G37*
G36*
X511311Y116498D02*
X510498Y116280D01*
X509722Y115832D01*
X509089Y115199D01*
X508641Y114423D01*
X508423Y113610D01*
X511311D01*
Y116498D01*
D02*
G37*
G36*
X524122Y116498D02*
Y113610D01*
X527010D01*
X526792Y114423D01*
X526344Y115199D01*
X525711Y115832D01*
X524935Y116280D01*
X524122Y116498D01*
D02*
G37*
G36*
X523122Y116498D02*
X522309Y116280D01*
X521533Y115832D01*
X520900Y115199D01*
X520452Y114423D01*
X520234Y113610D01*
X523122D01*
Y116498D01*
D02*
G37*
G36*
X527010Y112610D02*
X524122D01*
Y109723D01*
X524935Y109941D01*
X525711Y110388D01*
X526344Y111022D01*
X526792Y111797D01*
X527010Y112610D01*
D02*
G37*
G36*
X515199Y112610D02*
X512311D01*
Y109723D01*
X513124Y109941D01*
X513900Y110388D01*
X514533Y111022D01*
X514981Y111797D01*
X515199Y112610D01*
D02*
G37*
G36*
X511311D02*
X508423D01*
X508641Y111797D01*
X509089Y111022D01*
X509722Y110388D01*
X510498Y109941D01*
X511311Y109723D01*
Y112610D01*
D02*
G37*
G36*
X523122Y112610D02*
X520234D01*
X520452Y111797D01*
X520900Y111022D01*
X521533Y110388D01*
X522309Y109941D01*
X523122Y109723D01*
Y112610D01*
D02*
G37*
G36*
X512311Y106498D02*
Y103610D01*
X515199D01*
X514981Y104423D01*
X514533Y105199D01*
X513900Y105832D01*
X513124Y106280D01*
X512311Y106498D01*
D02*
G37*
G36*
X511311Y106498D02*
X510498Y106280D01*
X509722Y105832D01*
X509089Y105199D01*
X508641Y104423D01*
X508423Y103610D01*
X511311D01*
Y106498D01*
D02*
G37*
G36*
X524122Y106498D02*
Y103610D01*
X527010D01*
X526792Y104423D01*
X526344Y105199D01*
X525711Y105832D01*
X524935Y106280D01*
X524122Y106498D01*
D02*
G37*
G36*
X523122Y106498D02*
X522309Y106280D01*
X521533Y105832D01*
X520900Y105199D01*
X520452Y104423D01*
X520234Y103610D01*
X523122D01*
Y106498D01*
D02*
G37*
G36*
X527010Y102610D02*
X524122D01*
Y99723D01*
X524935Y99941D01*
X525711Y100388D01*
X526344Y101022D01*
X526792Y101797D01*
X527010Y102610D01*
D02*
G37*
G36*
X515199Y102610D02*
X512311D01*
Y99723D01*
X513124Y99941D01*
X513900Y100388D01*
X514533Y101022D01*
X514981Y101797D01*
X515199Y102610D01*
D02*
G37*
G36*
X511311D02*
X508423D01*
X508641Y101797D01*
X509089Y101022D01*
X509722Y100388D01*
X510498Y99941D01*
X511311Y99723D01*
Y102610D01*
D02*
G37*
G36*
X523122Y102610D02*
X520234D01*
X520452Y101797D01*
X520900Y101022D01*
X521533Y100388D01*
X522309Y99941D01*
X523122Y99723D01*
Y102610D01*
D02*
G37*
G36*
X32177Y109268D02*
X27740D01*
Y98925D01*
X32177D01*
Y109268D01*
D02*
G37*
G36*
X512311Y96498D02*
Y93610D01*
X515199D01*
X514981Y94423D01*
X514533Y95199D01*
X513900Y95832D01*
X513124Y96280D01*
X512311Y96498D01*
D02*
G37*
G36*
X511311Y96498D02*
X510498Y96280D01*
X509722Y95832D01*
X509089Y95199D01*
X508641Y94423D01*
X508423Y93610D01*
X511311D01*
Y96498D01*
D02*
G37*
G36*
X524122Y96498D02*
Y93610D01*
X527010D01*
X526792Y94423D01*
X526344Y95199D01*
X525711Y95832D01*
X524935Y96280D01*
X524122Y96498D01*
D02*
G37*
G36*
X523122Y96498D02*
X522309Y96280D01*
X521533Y95832D01*
X520900Y95199D01*
X520452Y94423D01*
X520234Y93610D01*
X523122D01*
Y96498D01*
D02*
G37*
G36*
X527010Y92610D02*
X524122D01*
Y89723D01*
X524935Y89941D01*
X525711Y90388D01*
X526344Y91022D01*
X526792Y91797D01*
X527010Y92610D01*
D02*
G37*
G36*
X515199Y92610D02*
X512311D01*
Y89723D01*
X513124Y89941D01*
X513900Y90388D01*
X514533Y91022D01*
X514981Y91797D01*
X515199Y92610D01*
D02*
G37*
G36*
X511311D02*
X508423D01*
X508641Y91797D01*
X509089Y91022D01*
X509722Y90388D01*
X510498Y89941D01*
X511311Y89723D01*
Y92610D01*
D02*
G37*
G36*
X523122Y92610D02*
X520234D01*
X520452Y91797D01*
X520900Y91022D01*
X521533Y90388D01*
X522309Y89941D01*
X523122Y89723D01*
Y92610D01*
D02*
G37*
G36*
X513904Y78347D02*
X512867D01*
X511866Y78078D01*
X510968Y77560D01*
X510236Y76827D01*
X509717Y75929D01*
X509449Y74928D01*
Y73891D01*
X509717Y72890D01*
X510236Y71992D01*
X510968Y71259D01*
X511866Y70741D01*
X512867Y70473D01*
X513904D01*
X514906Y70741D01*
X515803Y71259D01*
X516536Y71992D01*
X517055Y72890D01*
X517323Y73891D01*
Y74928D01*
X517055Y75929D01*
X516536Y76827D01*
X515803Y77560D01*
X514906Y78078D01*
X513904Y78347D01*
D02*
G37*
G36*
X41857Y51181D02*
X40820D01*
X39819Y50913D01*
X38921Y50394D01*
X38188Y49661D01*
X37670Y48764D01*
X37402Y47762D01*
Y46726D01*
X37670Y45724D01*
X38188Y44827D01*
X38921Y44094D01*
X39819Y43575D01*
X40820Y43307D01*
X41857D01*
X42858Y43575D01*
X43756Y44094D01*
X44489Y44827D01*
X45007Y45724D01*
X45276Y46726D01*
Y47762D01*
X45007Y48764D01*
X44489Y49661D01*
X43756Y50394D01*
X42858Y50913D01*
X41857Y51181D01*
D02*
G37*
G36*
X183177Y27614D02*
Y25264D01*
X185685D01*
Y27614D01*
X183177D01*
D02*
G37*
%LPD*%
G36*
X490158Y47244D02*
X470472D01*
Y295276D01*
X490158D01*
Y47244D01*
D02*
G37*
%LPC*%
G36*
X172913Y216945D02*
X161783D01*
Y210736D01*
X172913D01*
Y216945D01*
D02*
G37*
G36*
X160783D02*
X149653D01*
Y210736D01*
X160783D01*
Y216945D01*
D02*
G37*
G36*
X172913Y209736D02*
X161783D01*
Y203528D01*
X172913D01*
Y209736D01*
D02*
G37*
G36*
X160783D02*
X149653D01*
Y203528D01*
X160783D01*
Y209736D01*
D02*
G37*
G36*
X164386Y192043D02*
X156996D01*
Y187902D01*
X164386D01*
Y192043D01*
D02*
G37*
G36*
X155996D02*
X148606D01*
Y187902D01*
X155996D01*
Y192043D01*
D02*
G37*
G36*
X164386Y186902D02*
X156996D01*
Y182760D01*
X164386D01*
Y186902D01*
D02*
G37*
G36*
X155996D02*
X148606D01*
Y182760D01*
X155996D01*
Y186902D01*
D02*
G37*
G36*
X114976Y174697D02*
X112114D01*
Y171638D01*
X114976D01*
Y174697D01*
D02*
G37*
G36*
X112705Y166325D02*
Y163886D01*
X115144D01*
X114971Y164532D01*
X114580Y165208D01*
X114027Y165761D01*
X113350Y166152D01*
X112705Y166325D01*
D02*
G37*
G36*
X115144Y162886D02*
X112705D01*
Y160447D01*
X113350Y160620D01*
X114027Y161010D01*
X114580Y161563D01*
X114971Y162240D01*
X115144Y162886D01*
D02*
G37*
G36*
X166276Y168717D02*
X153177D01*
Y156799D01*
X166276D01*
Y168717D01*
D02*
G37*
G36*
X152177D02*
X139079D01*
Y156799D01*
X152177D01*
Y168717D01*
D02*
G37*
G36*
X166276Y155799D02*
X153177D01*
Y143882D01*
X166276D01*
Y155799D01*
D02*
G37*
%LPD*%
G36*
X148031Y160630D02*
Y164961D01*
X151969D01*
X148031Y160630D01*
D02*
G37*
%LPC*%
G36*
X180846Y132102D02*
X177787D01*
Y129240D01*
X180846D01*
Y132102D01*
D02*
G37*
G36*
X199303Y135449D02*
X199123D01*
X197789Y135183D01*
X196532Y134663D01*
X195401Y133907D01*
X194439Y132945D01*
X193684Y131814D01*
X193163Y130558D01*
X192898Y129223D01*
Y129043D01*
X199303D01*
Y135449D01*
D02*
G37*
G36*
Y128043D02*
X192898D01*
Y127863D01*
X193163Y126529D01*
X193684Y125272D01*
X194439Y124141D01*
X195401Y123179D01*
X196532Y122424D01*
X197789Y121903D01*
X199123Y121638D01*
X199303D01*
Y128043D01*
D02*
G37*
G36*
X186236Y75213D02*
X183374D01*
Y72154D01*
X186236D01*
Y75213D01*
D02*
G37*
G36*
X129351Y105724D02*
X120387D01*
Y100894D01*
X129351D01*
Y105724D01*
D02*
G37*
G36*
X119387D02*
X110422D01*
Y100894D01*
X119387D01*
Y105724D01*
D02*
G37*
G36*
X129351Y99894D02*
X119887D01*
X110422D01*
Y95469D01*
X110422Y95063D01*
X109844Y94769D01*
X108257D01*
Y88560D01*
X131517D01*
Y94769D01*
X129929D01*
X129351Y95063D01*
X129351Y95469D01*
Y99894D01*
D02*
G37*
G36*
X131517Y87560D02*
X120387D01*
Y81352D01*
X131517D01*
Y87560D01*
D02*
G37*
G36*
X119387D02*
X108257D01*
Y81352D01*
X119387D01*
Y87560D01*
D02*
G37*
G36*
X80535Y62221D02*
X76394D01*
Y54831D01*
X80535D01*
Y62221D01*
D02*
G37*
G36*
X75394D02*
X71252D01*
Y54831D01*
X75394D01*
Y62221D01*
D02*
G37*
G36*
X80535Y53831D02*
X76394D01*
Y46441D01*
X80535D01*
Y53831D01*
D02*
G37*
G36*
X75394D02*
X71252D01*
Y46441D01*
X75394D01*
Y53831D01*
D02*
G37*
G36*
X120957Y28638D02*
X116323D01*
Y25185D01*
X120957D01*
Y28638D01*
D02*
G37*
G36*
X126591Y24185D02*
X121957D01*
Y20732D01*
X126591D01*
Y24185D01*
D02*
G37*
G36*
X120957D02*
X116323D01*
Y20732D01*
X120957D01*
Y24185D01*
D02*
G37*
%LPD*%
D18*
X105315Y276378D02*
D03*
Y268898D02*
D03*
X177287Y121260D02*
D03*
X138013Y116296D02*
D03*
Y123777D02*
D03*
X177287Y128740D02*
D03*
D19*
X111614Y175197D02*
D03*
X104134D02*
D03*
X163977Y71653D02*
D03*
X156496D02*
D03*
X175394Y64567D02*
D03*
X163976D02*
D03*
X156496D02*
D03*
X175394Y71653D02*
D03*
X182874D02*
D03*
Y64567D02*
D03*
D20*
X118105Y188750D02*
D03*
X111372D02*
D03*
X104640D02*
D03*
X97908D02*
D03*
X91175D02*
D03*
D21*
X104640Y230088D02*
D03*
D22*
X112205Y163386D02*
D03*
X513386Y74410D02*
D03*
X41339Y47244D02*
D03*
X26772Y269685D02*
D03*
X43701Y276378D02*
D03*
X128779Y194882D02*
D03*
X156753Y135473D02*
D03*
X26980Y227347D02*
D03*
X18110Y185433D02*
D03*
X50394Y159055D02*
D03*
X135000Y193268D02*
D03*
X151575Y127953D02*
D03*
X98032Y198819D02*
D03*
X133602Y137223D02*
D03*
X89670Y140905D02*
D03*
X164465Y135494D02*
D03*
X182366Y121399D02*
D03*
X72835Y41732D02*
D03*
X77165D02*
D03*
X81890Y51181D02*
D03*
Y55905D02*
D03*
X86221Y51181D02*
D03*
Y55905D02*
D03*
Y46457D02*
D03*
Y41732D02*
D03*
X81890Y46457D02*
D03*
Y41732D02*
D03*
X107480Y25984D02*
D03*
Y30709D02*
D03*
X111811Y25984D02*
D03*
Y30709D02*
D03*
X79134Y122441D02*
D03*
X84646Y274410D02*
D03*
X124803Y176772D02*
D03*
X79134Y141339D02*
D03*
X151221Y135433D02*
D03*
X184646Y147244D02*
D03*
X111417Y198819D02*
D03*
D23*
X156496Y187402D02*
D03*
X177362D02*
D03*
D24*
X159370Y103612D02*
D03*
D25*
X155532Y111682D02*
D03*
X158091D02*
D03*
X160650D02*
D03*
X163209D02*
D03*
X160650Y95541D02*
D03*
X158091D02*
D03*
X155532D02*
D03*
X163209D02*
D03*
D26*
X167441Y107450D02*
D03*
Y104891D02*
D03*
Y102332D02*
D03*
Y99773D02*
D03*
X151299D02*
D03*
Y102332D02*
D03*
Y104891D02*
D03*
Y107450D02*
D03*
D27*
X63779Y286047D02*
D03*
X91339D02*
D03*
D28*
X162402Y291339D02*
D03*
Y263779D02*
D03*
X51181Y266929D02*
D03*
Y239370D02*
D03*
X119887Y100394D02*
D03*
Y127953D02*
D03*
D29*
X175197Y44882D02*
D03*
X163386D02*
D03*
X175591Y55512D02*
D03*
X163779D02*
D03*
X90551Y98425D02*
D03*
X78740D02*
D03*
X90551Y110236D02*
D03*
X78740D02*
D03*
D30*
X182677Y24764D02*
D03*
Y18543D02*
D03*
X175591Y18543D02*
D03*
Y24764D02*
D03*
X164370Y128110D02*
D03*
Y121890D02*
D03*
X72047Y136575D02*
D03*
Y130354D02*
D03*
X101255Y134808D02*
D03*
Y141028D02*
D03*
X94081Y134685D02*
D03*
Y140905D02*
D03*
X7087Y209803D02*
D03*
Y203583D02*
D03*
X14567Y225551D02*
D03*
Y219331D02*
D03*
X79134Y130354D02*
D03*
Y136575D02*
D03*
X138013Y103742D02*
D03*
Y109962D02*
D03*
X170276Y121890D02*
D03*
Y128110D02*
D03*
X168504Y24764D02*
D03*
Y18543D02*
D03*
D31*
X161283Y210236D02*
D03*
Y249213D02*
D03*
X119887Y88060D02*
D03*
Y49084D02*
D03*
D32*
X26964Y201029D02*
D03*
Y219139D02*
D03*
X177677Y147244D02*
D03*
Y165354D02*
D03*
D33*
X51964Y210084D02*
D03*
X152677Y156299D02*
D03*
D34*
X140984Y135433D02*
D03*
X147205D02*
D03*
X135000Y188583D02*
D03*
X128779D02*
D03*
X128779Y182677D02*
D03*
X135000D02*
D03*
X135000Y176772D02*
D03*
X128779D02*
D03*
X105732Y147827D02*
D03*
X99511D02*
D03*
X154685Y79528D02*
D03*
X148465D02*
D03*
D35*
X125984Y267126D02*
D03*
Y287992D02*
D03*
X75894Y75197D02*
D03*
Y54331D02*
D03*
D36*
X14567Y211221D02*
D03*
Y202953D02*
D03*
X129259Y137445D02*
D03*
Y145713D02*
D03*
D37*
X117120Y146500D02*
D03*
X120860Y137839D02*
D03*
X113380D02*
D03*
D38*
X121457Y14685D02*
D03*
Y24685D02*
D03*
X157283D02*
D03*
Y14685D02*
D03*
D71*
X177287Y121260D02*
X182226D01*
X138013Y109962D02*
Y116296D01*
X163976Y71653D02*
Y85630D01*
X163779Y55512D02*
Y72638D01*
X62205Y133071D02*
X64921Y130354D01*
X72047D01*
X135000Y188583D02*
Y193268D01*
X100394Y262598D02*
X100787D01*
D72*
X175394Y89173D02*
Y94291D01*
X169912Y99773D02*
X175394Y94291D01*
X177165Y108003D02*
Y115157D01*
X171525Y102362D02*
X177165Y108003D01*
X155118Y127953D02*
X159449Y123622D01*
X151575Y127953D02*
X155118D01*
X158091Y114784D02*
X159449Y116142D01*
Y123622D01*
X177165Y115157D02*
Y121260D01*
X172244Y109252D02*
Y115571D01*
X170276Y117539D02*
X172244Y115571D01*
X170276Y117539D02*
Y121890D01*
X93687Y134291D02*
X94081Y134685D01*
X101255Y141028D02*
X101314Y141088D01*
Y144239D01*
X99511Y146042D02*
X101314Y144239D01*
X99511Y146042D02*
Y147827D01*
X167471Y102362D02*
X171525D01*
X170442Y107450D02*
X172244Y109252D01*
X163209Y114931D02*
X164370Y116093D01*
Y121890D01*
X175394Y85039D02*
Y89173D01*
X163209Y111682D02*
Y114931D01*
X160650Y95541D02*
Y103612D01*
X160650Y104891D02*
X167441D01*
X159370Y103612D02*
X160650Y104891D01*
X167441Y99773D02*
X169912D01*
X163209Y90969D02*
Y95541D01*
Y90969D02*
X163976Y90201D01*
Y85630D02*
Y90201D01*
X158091Y82933D02*
Y95541D01*
X154685Y79528D02*
X158091Y82933D01*
Y111682D02*
Y114784D01*
X159454Y103612D02*
X160650D01*
X167441Y102332D02*
X167471Y102362D01*
X167441Y107450D02*
X170442D01*
D73*
X98032Y188750D02*
Y198819D01*
X104640Y188750D02*
Y230088D01*
X177677Y147244D02*
X184646D01*
X111417Y188750D02*
Y198819D01*
X111372Y188750D02*
X111417D01*
X99606Y225055D02*
X104640Y230088D01*
D74*
X129259Y137445D02*
X133380D01*
X121254D02*
X129259D01*
X133380D02*
X133602Y137223D01*
X120885Y137814D02*
X121254Y137445D01*
X89670Y140905D02*
X89670Y140905D01*
X94081D01*
X106693Y138189D02*
X113189D01*
X103312Y134808D02*
X106693Y138189D01*
X101255Y134808D02*
X103312D01*
X101132Y134685D02*
X101255Y134808D01*
X94081Y134685D02*
X101132D01*
X164370Y128300D02*
Y135399D01*
Y128300D02*
X164465Y128205D01*
X164370Y128110D02*
X164465Y128205D01*
X175394Y71653D02*
Y85630D01*
X175394Y58533D02*
Y70079D01*
X157506Y14462D02*
X166142D01*
X168504Y16824D01*
Y18543D01*
X157283Y14685D02*
X157506Y14462D01*
X79134Y122441D02*
Y130354D01*
Y121653D02*
Y122441D01*
X175591Y24764D02*
Y47312D01*
X175197Y47706D02*
X175591Y47312D01*
X175591Y24764D02*
X175591Y24764D01*
X168504Y24764D02*
X175591D01*
X78347Y120866D02*
X79134Y121653D01*
X124803Y176772D02*
X128779D01*
X79134Y136575D02*
Y141339D01*
X72047Y136575D02*
X79134D01*
X147283Y135433D02*
X151221D01*
X135000Y176772D02*
Y182677D01*
X128779Y182677D02*
Y188583D01*
X118272Y188583D02*
X128779D01*
X14567Y219331D02*
X26142D01*
D75*
X117120Y146500D02*
X117417Y146797D01*
X121292D02*
X122377Y145712D01*
X117417Y146797D02*
X121292D01*
X122377Y145712D02*
X129258D01*
X129259Y145713D02*
X133737D01*
X140935Y138514D01*
X109654Y147827D02*
X110630Y146850D01*
X105732Y147827D02*
X109654D01*
X151221Y135433D02*
X155832D01*
X156693Y134572D01*
Y135473D01*
X147244Y135472D02*
X147283Y135433D01*
X57874Y43203D02*
X63675Y37402D01*
X121653D02*
X134370Y24685D01*
X63675Y37402D02*
X121653D01*
X134370Y24685D02*
X157283D01*
X44488Y79921D02*
X50394D01*
X57874Y43203D02*
Y72441D01*
X50394Y79921D02*
X57874Y72441D01*
X105905Y12598D02*
X111811Y6693D01*
X47835Y25000D02*
X60236Y12598D01*
X105905D01*
X112480Y14685D02*
X121457D01*
X108937Y18228D02*
X112480Y14685D01*
X63791Y18228D02*
X108937D01*
X111811Y6693D02*
X170472D01*
X175591Y11811D01*
Y18543D01*
X140935Y135443D02*
Y138514D01*
X26964Y219139D02*
Y227330D01*
X26980Y227347D01*
X128779Y188583D02*
Y194882D01*
X57835Y24185D02*
Y29528D01*
Y24185D02*
X63791Y18228D01*
X47835Y25000D02*
Y29528D01*
X175591Y18543D02*
X175591Y18543D01*
X182677D01*
X110630Y146850D02*
X116929D01*
X50394Y143701D02*
Y159055D01*
X184646Y147244D02*
X184646Y147244D01*
X97908Y188750D02*
X98032D01*
D76*
X199803Y128543D02*
D03*
X485236D02*
D03*
Y52559D02*
D03*
X199803D02*
D03*
Y289961D02*
D03*
X485236D02*
D03*
Y213976D02*
D03*
X199803D02*
D03*
X44882Y63779D02*
D03*
X18110Y254331D02*
D03*
X514173Y171260D02*
D03*
D77*
X234409Y52559D02*
D03*
Y128543D02*
D03*
X453386Y52559D02*
D03*
Y128543D02*
D03*
X234409Y213976D02*
D03*
Y289961D02*
D03*
X453386Y213976D02*
D03*
Y289961D02*
D03*
D78*
X44488Y79921D02*
D03*
D79*
X32677Y98425D02*
D03*
X57087D02*
D03*
D80*
X97835Y29528D02*
D03*
X87835D02*
D03*
X77835D02*
D03*
X67835D02*
D03*
X57835D02*
D03*
X156732Y326772D02*
D03*
X146732D02*
D03*
X136732D02*
D03*
X126732D02*
D03*
X116732D02*
D03*
X156732Y314961D02*
D03*
X146732D02*
D03*
X136732D02*
D03*
X126732D02*
D03*
X116732D02*
D03*
X93740Y314961D02*
D03*
X83740D02*
D03*
X73740D02*
D03*
X63740D02*
D03*
X53740D02*
D03*
X93740Y326772D02*
D03*
X83740D02*
D03*
X73740D02*
D03*
X63740D02*
D03*
X53740D02*
D03*
X523622Y239409D02*
D03*
Y229410D02*
D03*
Y219409D02*
D03*
Y209409D02*
D03*
Y199409D02*
D03*
X511811Y239409D02*
D03*
Y229410D02*
D03*
Y219409D02*
D03*
Y209409D02*
D03*
Y199409D02*
D03*
X523622Y133110D02*
D03*
Y123110D02*
D03*
Y113110D02*
D03*
Y103110D02*
D03*
Y93110D02*
D03*
X511811Y133110D02*
D03*
Y123110D02*
D03*
Y113110D02*
D03*
Y103110D02*
D03*
Y93110D02*
D03*
D81*
X47835Y29528D02*
D03*
X166732Y326772D02*
D03*
Y314961D02*
D03*
X103740Y314961D02*
D03*
Y326772D02*
D03*
D82*
X25197Y143701D02*
D03*
D83*
X37795D02*
D03*
X50394D02*
D03*
X25197Y131890D02*
D03*
X37795D02*
D03*
X50394D02*
D03*
X61024Y151181D02*
D03*
X14567Y124409D02*
D03*
D84*
X523622Y249410D02*
D03*
X511811D02*
D03*
X523622Y143110D02*
D03*
X511811D02*
D03*
D85*
X151969Y71653D02*
D03*
Y64567D02*
D03*
X150398Y94949D02*
D03*
X146461D02*
D03*
X150394Y112272D02*
D03*
X146457D02*
D03*
X88976Y314961D02*
D03*
X78740D02*
D03*
X88761Y319019D02*
D03*
Y322956D02*
D03*
X80709Y322835D02*
D03*
X84646D02*
D03*
X76772D02*
D03*
X80709Y318898D02*
D03*
X84646D02*
D03*
X76772D02*
D03*
X108268Y338583D02*
D03*
X104331D02*
D03*
X100394D02*
D03*
X96457D02*
D03*
X92520D02*
D03*
X88583D02*
D03*
X84646D02*
D03*
X76772D02*
D03*
X72835D02*
D03*
X80709D02*
D03*
X68898D02*
D03*
X64961D02*
D03*
X61024D02*
D03*
X57087D02*
D03*
X53150D02*
D03*
X49213D02*
D03*
X45276D02*
D03*
X41339D02*
D03*
X161811Y314961D02*
D03*
X141732D02*
D03*
X121653D02*
D03*
X98819D02*
D03*
X59055D02*
D03*
X98425Y326772D02*
D03*
X79134D02*
D03*
X59055D02*
D03*
X171260Y311024D02*
D03*
X167323D02*
D03*
X163386D02*
D03*
X159449D02*
D03*
X155512D02*
D03*
X151575D02*
D03*
X147638D02*
D03*
X139764D02*
D03*
X135827D02*
D03*
X143701D02*
D03*
X131890D02*
D03*
X127953D02*
D03*
X124016D02*
D03*
X120079D02*
D03*
X116142D02*
D03*
X112205D02*
D03*
X171260Y314961D02*
D03*
X151575D02*
D03*
X131890D02*
D03*
X112205D02*
D03*
X171260Y318898D02*
D03*
X167323D02*
D03*
X163386D02*
D03*
X159449D02*
D03*
X155512D02*
D03*
X151575D02*
D03*
X147638D02*
D03*
X139764D02*
D03*
X135827D02*
D03*
X143701D02*
D03*
X131890D02*
D03*
X127953D02*
D03*
X124016D02*
D03*
X120079D02*
D03*
X116142D02*
D03*
X112205D02*
D03*
X41339Y311024D02*
D03*
X45276D02*
D03*
X49213D02*
D03*
X53150D02*
D03*
X57087D02*
D03*
X61024D02*
D03*
X64961D02*
D03*
X72835D02*
D03*
X76772D02*
D03*
X68898D02*
D03*
X80709D02*
D03*
X84646D02*
D03*
X88583D02*
D03*
X92520D02*
D03*
X96457D02*
D03*
X100394D02*
D03*
X104331D02*
D03*
X108268D02*
D03*
X41339Y314961D02*
D03*
X45276D02*
D03*
X49213D02*
D03*
X68898D02*
D03*
X108268D02*
D03*
X41339Y318898D02*
D03*
X45276D02*
D03*
X49213D02*
D03*
X53150D02*
D03*
X57087D02*
D03*
X61024D02*
D03*
X64961D02*
D03*
X72835D02*
D03*
X68898D02*
D03*
X92520D02*
D03*
X96457D02*
D03*
X100394D02*
D03*
X104331D02*
D03*
X108268D02*
D03*
X41339Y322835D02*
D03*
X45276D02*
D03*
X49213D02*
D03*
X53150D02*
D03*
X57087D02*
D03*
X61024D02*
D03*
X64961D02*
D03*
X72835D02*
D03*
X68898D02*
D03*
X92520D02*
D03*
X96457D02*
D03*
X100394D02*
D03*
X104331D02*
D03*
X108268D02*
D03*
X41339Y326772D02*
D03*
X45276D02*
D03*
X49213D02*
D03*
X68898D02*
D03*
X88583D02*
D03*
X108268D02*
D03*
X76772Y330709D02*
D03*
X61024D02*
D03*
X108268D02*
D03*
X100394D02*
D03*
X88583D02*
D03*
X68898D02*
D03*
X72835D02*
D03*
X49213D02*
D03*
X96457D02*
D03*
X84646D02*
D03*
X57087D02*
D03*
X64961D02*
D03*
X45276D02*
D03*
X92520D02*
D03*
X80709D02*
D03*
X53150D02*
D03*
X104331D02*
D03*
X41339D02*
D03*
X108268Y334646D02*
D03*
X104331D02*
D03*
X100394D02*
D03*
X96457D02*
D03*
X92520D02*
D03*
X88583D02*
D03*
X84646D02*
D03*
X80709D02*
D03*
X68898D02*
D03*
X76772D02*
D03*
X72835D02*
D03*
X64961D02*
D03*
X61024D02*
D03*
X57087D02*
D03*
X53150D02*
D03*
X49213D02*
D03*
X45276D02*
D03*
X41339D02*
D03*
X146461Y120147D02*
D03*
X97249Y96131D02*
D03*
X150398Y120147D02*
D03*
X100792Y115816D02*
D03*
X97249D02*
D03*
X100792Y111879D02*
D03*
X97249D02*
D03*
X100792Y107942D02*
D03*
X97249D02*
D03*
Y104005D02*
D03*
Y100068D02*
D03*
Y92194D02*
D03*
Y88257D02*
D03*
X100792D02*
D03*
Y96131D02*
D03*
Y104005D02*
D03*
Y100068D02*
D03*
Y92194D02*
D03*
X150398Y87075D02*
D03*
Y116210D02*
D03*
X146461Y87075D02*
D03*
Y116210D02*
D03*
X150398Y91012D02*
D03*
X146461D02*
D03*
D86*
X157205Y101446D02*
D03*
X161535D02*
D03*
Y105777D02*
D03*
X157205D02*
D03*
D87*
X220472Y43307D02*
D03*
X232283Y82677D02*
D03*
X228346D02*
D03*
X232283Y86614D02*
D03*
X228346D02*
D03*
X224410D02*
D03*
X232283Y90551D02*
D03*
X228346D02*
D03*
X224410D02*
D03*
X232283Y94488D02*
D03*
X228346D02*
D03*
X224410D02*
D03*
X232283Y98425D02*
D03*
X228346D02*
D03*
X232283Y173228D02*
D03*
Y177165D02*
D03*
X228346D02*
D03*
X232283Y181102D02*
D03*
X228346D02*
D03*
X224410D02*
D03*
X232283Y185039D02*
D03*
X228346D02*
D03*
X224410D02*
D03*
X232283Y188976D02*
D03*
X228346D02*
D03*
X232283Y192913D02*
D03*
X208661Y43307D02*
D03*
X204724D02*
D03*
X200787D02*
D03*
X196850D02*
D03*
X192913D02*
D03*
X208661Y47244D02*
D03*
X192913D02*
D03*
X208661Y51181D02*
D03*
X192913D02*
D03*
X208661Y55118D02*
D03*
X192913D02*
D03*
X204724Y47244D02*
D03*
X200787D02*
D03*
X196850D02*
D03*
X224410Y43307D02*
D03*
X228346D02*
D03*
X220472Y47244D02*
D03*
Y110236D02*
D03*
X224410D02*
D03*
X228346D02*
D03*
X220472Y114173D02*
D03*
X224410D02*
D03*
X228346D02*
D03*
X220472Y118110D02*
D03*
X224410D02*
D03*
X228346D02*
D03*
X220472Y122047D02*
D03*
X224410D02*
D03*
X220472Y165354D02*
D03*
X224410D02*
D03*
X228346D02*
D03*
X220472Y169291D02*
D03*
X224410D02*
D03*
X228346D02*
D03*
X220472Y173228D02*
D03*
X224410D02*
D03*
X228346D02*
D03*
X220472Y177165D02*
D03*
X224410D02*
D03*
X220472Y196850D02*
D03*
X224410D02*
D03*
X228346D02*
D03*
X220472Y200787D02*
D03*
X224410D02*
D03*
X228346D02*
D03*
X220472Y204724D02*
D03*
X224410D02*
D03*
X228346D02*
D03*
X220472Y208661D02*
D03*
X224410D02*
D03*
X196850D02*
D03*
X200787D02*
D03*
X204724D02*
D03*
X192913Y224410D02*
D03*
X196850D02*
D03*
X200787D02*
D03*
X204724D02*
D03*
X208661D02*
D03*
X192913Y220472D02*
D03*
X196850D02*
D03*
X200787D02*
D03*
X204724D02*
D03*
X208661D02*
D03*
X192913Y216535D02*
D03*
X208661D02*
D03*
X192913Y212598D02*
D03*
X208661D02*
D03*
X192913Y208661D02*
D03*
X208661D02*
D03*
X192913Y204724D02*
D03*
X196850D02*
D03*
X200787D02*
D03*
X204724D02*
D03*
X208661D02*
D03*
X216535Y43307D02*
D03*
Y47244D02*
D03*
X212598D02*
D03*
Y43307D02*
D03*
Y51181D02*
D03*
X216535D02*
D03*
X220472D02*
D03*
X212598Y55118D02*
D03*
X216535D02*
D03*
X220472D02*
D03*
X232283Y66929D02*
D03*
X228346D02*
D03*
X224410D02*
D03*
X220472D02*
D03*
X216535D02*
D03*
X212598D02*
D03*
X232283Y62992D02*
D03*
X228346D02*
D03*
X224410D02*
D03*
X220472D02*
D03*
X216535D02*
D03*
X212598D02*
D03*
Y59055D02*
D03*
X216535D02*
D03*
X220472D02*
D03*
X224410D02*
D03*
Y82677D02*
D03*
X220472D02*
D03*
X216535D02*
D03*
X212598D02*
D03*
Y86614D02*
D03*
X216535D02*
D03*
X220472D02*
D03*
X212598Y90551D02*
D03*
X216535D02*
D03*
X220472D02*
D03*
X232283Y78740D02*
D03*
X228346D02*
D03*
X224410D02*
D03*
X220472D02*
D03*
X216535D02*
D03*
X212598D02*
D03*
X232283Y74803D02*
D03*
X228346D02*
D03*
X224410D02*
D03*
X220472D02*
D03*
X216535D02*
D03*
X212598D02*
D03*
Y70866D02*
D03*
X216535D02*
D03*
X220472D02*
D03*
X224410D02*
D03*
X228346D02*
D03*
X232283D02*
D03*
Y106299D02*
D03*
X228346D02*
D03*
X224410D02*
D03*
X220472D02*
D03*
X216535D02*
D03*
X212598D02*
D03*
Y110236D02*
D03*
X216535D02*
D03*
X232283D02*
D03*
X212598Y114173D02*
D03*
X216535D02*
D03*
X232283D02*
D03*
Y102362D02*
D03*
X228346D02*
D03*
X224410D02*
D03*
X220472D02*
D03*
X216535D02*
D03*
X212598D02*
D03*
X224410Y98425D02*
D03*
X220472D02*
D03*
X216535D02*
D03*
X212598D02*
D03*
Y94488D02*
D03*
X216535D02*
D03*
X220472D02*
D03*
X232283Y118110D02*
D03*
X216535D02*
D03*
X212598D02*
D03*
Y122047D02*
D03*
X216535D02*
D03*
X224410Y125984D02*
D03*
X220472D02*
D03*
X216535D02*
D03*
X212598D02*
D03*
Y129921D02*
D03*
X216535D02*
D03*
X220472D02*
D03*
X224410D02*
D03*
Y133858D02*
D03*
X220472D02*
D03*
X216535D02*
D03*
X212598D02*
D03*
Y137795D02*
D03*
X216535D02*
D03*
X220472D02*
D03*
X224410D02*
D03*
X228346D02*
D03*
X232283Y141732D02*
D03*
X228346D02*
D03*
X224410D02*
D03*
X220472D02*
D03*
X216535D02*
D03*
X212598D02*
D03*
Y145669D02*
D03*
X216535D02*
D03*
X220472D02*
D03*
X224410D02*
D03*
X228346D02*
D03*
X232283D02*
D03*
Y149606D02*
D03*
X228346D02*
D03*
X224410D02*
D03*
X220472D02*
D03*
X216535D02*
D03*
X212598D02*
D03*
Y153543D02*
D03*
X216535D02*
D03*
X220472D02*
D03*
X224410D02*
D03*
X228346D02*
D03*
X232283D02*
D03*
Y157480D02*
D03*
X228346D02*
D03*
X224410D02*
D03*
X220472D02*
D03*
X216535D02*
D03*
X212598D02*
D03*
Y161417D02*
D03*
X216535D02*
D03*
X220472D02*
D03*
X224410D02*
D03*
X228346D02*
D03*
X232283D02*
D03*
Y165354D02*
D03*
X216535D02*
D03*
X212598D02*
D03*
Y169291D02*
D03*
X216535D02*
D03*
X232283D02*
D03*
X216535Y173228D02*
D03*
X212598D02*
D03*
Y177165D02*
D03*
X216535D02*
D03*
X220472Y181102D02*
D03*
X216535D02*
D03*
X212598D02*
D03*
Y185039D02*
D03*
X216535D02*
D03*
X220472D02*
D03*
X224410Y188976D02*
D03*
X220472D02*
D03*
X216535D02*
D03*
X212598D02*
D03*
Y192913D02*
D03*
X216535D02*
D03*
X220472D02*
D03*
X224410D02*
D03*
X228346D02*
D03*
X232283Y196850D02*
D03*
X216535D02*
D03*
X212598D02*
D03*
Y200787D02*
D03*
X216535D02*
D03*
X232283D02*
D03*
X216535Y204724D02*
D03*
X212598D02*
D03*
Y208661D02*
D03*
X216535D02*
D03*
X224410Y212598D02*
D03*
X220472D02*
D03*
X216535D02*
D03*
X212598D02*
D03*
Y216535D02*
D03*
X216535D02*
D03*
X220472D02*
D03*
X224410D02*
D03*
Y220472D02*
D03*
X220472D02*
D03*
X216535D02*
D03*
X212598D02*
D03*
Y224409D02*
D03*
X216535D02*
D03*
X220472D02*
D03*
X224410D02*
D03*
X228346D02*
D03*
X232283D02*
D03*
X476378Y291339D02*
D03*
X472441D02*
D03*
Y287402D02*
D03*
X476378D02*
D03*
Y283465D02*
D03*
X472441D02*
D03*
Y279528D02*
D03*
X476378D02*
D03*
X480315D02*
D03*
X484252D02*
D03*
X488189D02*
D03*
Y275590D02*
D03*
X484252D02*
D03*
X480315D02*
D03*
X476378D02*
D03*
X472441D02*
D03*
Y271654D02*
D03*
X476378D02*
D03*
X480315D02*
D03*
X484252D02*
D03*
X488189D02*
D03*
Y267717D02*
D03*
X484252D02*
D03*
X480315D02*
D03*
X476378D02*
D03*
X472441D02*
D03*
Y263779D02*
D03*
X476378D02*
D03*
X480315D02*
D03*
X484252D02*
D03*
X488189D02*
D03*
Y259842D02*
D03*
X484252D02*
D03*
X480315D02*
D03*
X476378D02*
D03*
X472441D02*
D03*
Y255906D02*
D03*
X476378D02*
D03*
X480315D02*
D03*
X484252D02*
D03*
X488189D02*
D03*
Y251969D02*
D03*
X484252D02*
D03*
X480315D02*
D03*
X476378D02*
D03*
X472441D02*
D03*
Y248031D02*
D03*
X476378D02*
D03*
X480315D02*
D03*
X484252D02*
D03*
X488189D02*
D03*
Y244094D02*
D03*
X484252D02*
D03*
X480315D02*
D03*
X476378D02*
D03*
X472441D02*
D03*
Y240158D02*
D03*
X476378D02*
D03*
X480315D02*
D03*
X484252D02*
D03*
X488189D02*
D03*
Y236221D02*
D03*
X484252D02*
D03*
X480315D02*
D03*
X476378D02*
D03*
X472441D02*
D03*
Y232283D02*
D03*
X476378D02*
D03*
X480315D02*
D03*
X484252D02*
D03*
X488189D02*
D03*
Y228346D02*
D03*
X484252D02*
D03*
X480315D02*
D03*
X476378D02*
D03*
X472441D02*
D03*
Y224410D02*
D03*
X476378D02*
D03*
X480315D02*
D03*
X484252D02*
D03*
X488189D02*
D03*
X476378Y220472D02*
D03*
X472441D02*
D03*
Y216535D02*
D03*
X476378D02*
D03*
Y212598D02*
D03*
X472441D02*
D03*
Y208661D02*
D03*
X476378D02*
D03*
X488189Y204724D02*
D03*
X484252D02*
D03*
X480315D02*
D03*
X476378D02*
D03*
X472441D02*
D03*
Y200787D02*
D03*
X476378D02*
D03*
X480315D02*
D03*
X484252D02*
D03*
X488189D02*
D03*
Y196850D02*
D03*
X484252D02*
D03*
X480315D02*
D03*
X476378D02*
D03*
X472441D02*
D03*
Y192913D02*
D03*
X476378D02*
D03*
X480315D02*
D03*
X484252D02*
D03*
X488189D02*
D03*
X476378Y188976D02*
D03*
X472441D02*
D03*
Y185039D02*
D03*
X476378D02*
D03*
Y181102D02*
D03*
X472441D02*
D03*
Y177165D02*
D03*
X476378D02*
D03*
X488189Y173228D02*
D03*
X484252D02*
D03*
X480315D02*
D03*
X476378D02*
D03*
X472441D02*
D03*
Y169291D02*
D03*
X476378D02*
D03*
X480315D02*
D03*
X484252D02*
D03*
X488189D02*
D03*
Y165354D02*
D03*
X484252D02*
D03*
X480315D02*
D03*
X476378D02*
D03*
X472441D02*
D03*
Y161417D02*
D03*
X476378D02*
D03*
X480315D02*
D03*
X484252D02*
D03*
X488189D02*
D03*
Y157480D02*
D03*
X484252D02*
D03*
X480315D02*
D03*
X476378D02*
D03*
X472441D02*
D03*
Y153543D02*
D03*
X476378D02*
D03*
X480315D02*
D03*
X484252D02*
D03*
X488189D02*
D03*
Y149606D02*
D03*
X484252D02*
D03*
X480315D02*
D03*
X476378D02*
D03*
X472441D02*
D03*
Y145669D02*
D03*
X476378D02*
D03*
X480315D02*
D03*
X484252D02*
D03*
X488189D02*
D03*
Y141732D02*
D03*
X484252D02*
D03*
X480315D02*
D03*
X476378D02*
D03*
X472441D02*
D03*
Y137795D02*
D03*
X476378D02*
D03*
X480315D02*
D03*
X484252D02*
D03*
X488189D02*
D03*
X476378Y133858D02*
D03*
X472441D02*
D03*
Y129921D02*
D03*
X476378D02*
D03*
X488189Y106299D02*
D03*
X484252D02*
D03*
X480315D02*
D03*
X476378D02*
D03*
X472441D02*
D03*
Y110236D02*
D03*
X476378D02*
D03*
X480315D02*
D03*
X484252D02*
D03*
X488189D02*
D03*
X472441Y114173D02*
D03*
X476378D02*
D03*
X480315D02*
D03*
X484252D02*
D03*
X488189D02*
D03*
X476378Y125984D02*
D03*
X472441D02*
D03*
X476378Y122047D02*
D03*
X472441D02*
D03*
Y118110D02*
D03*
X476378D02*
D03*
X480315D02*
D03*
X484252D02*
D03*
X488189D02*
D03*
Y82677D02*
D03*
X484252D02*
D03*
X480315D02*
D03*
X476378D02*
D03*
X472441D02*
D03*
Y86614D02*
D03*
X476378D02*
D03*
X480315D02*
D03*
X484252D02*
D03*
X488189D02*
D03*
X472441Y90551D02*
D03*
X476378D02*
D03*
X480315D02*
D03*
X484252D02*
D03*
X488189D02*
D03*
Y102362D02*
D03*
X484252D02*
D03*
X480315D02*
D03*
X476378D02*
D03*
X472441D02*
D03*
X488189Y98425D02*
D03*
X484252D02*
D03*
X480315D02*
D03*
X476378D02*
D03*
X472441D02*
D03*
Y94488D02*
D03*
X476378D02*
D03*
X480315D02*
D03*
X484252D02*
D03*
X488189D02*
D03*
Y70866D02*
D03*
X484252D02*
D03*
X480315D02*
D03*
X476378D02*
D03*
X472441D02*
D03*
Y74803D02*
D03*
X476378D02*
D03*
X480315D02*
D03*
X484252D02*
D03*
X488189D02*
D03*
X472441Y78740D02*
D03*
X476378D02*
D03*
X480315D02*
D03*
X484252D02*
D03*
X488189D02*
D03*
Y66929D02*
D03*
X484252D02*
D03*
X480315D02*
D03*
X476378D02*
D03*
X472441D02*
D03*
X488189Y62992D02*
D03*
X484252D02*
D03*
X480315D02*
D03*
X476378D02*
D03*
X472441D02*
D03*
Y55118D02*
D03*
Y59055D02*
D03*
X476378D02*
D03*
Y55118D02*
D03*
Y51181D02*
D03*
X472441D02*
D03*
M02*
